<svg xmlns="http://www.w3.org/2000/svg" xmlns:xlink="http://www.w3.org/1999/xlink" width="53" zoomAndPan="magnify" viewBox="0 0 39.75 30.000001" height="40" preserveAspectRatio="xMidYMid meet" version="1.0"><defs><clipPath id="id1"><path d="M 0.519531 0 L 38.988281 0 L 38.988281 28.984375 L 0.519531 28.984375 Z M 0.519531 0 " clip-rule="nonzero"/></clipPath></defs><g clip-path="url(#id1)"><path fill="#000000" d="M 30.820312 28.703125 C 30.484375 27.109375 30.480469 27.082031 30.589844 26.816406 C 30.648438 26.671875 30.773438 26.484375 30.871094 26.398438 C 31.09375 26.191406 31.085938 26.066406 30.839844 25.839844 C 30.539062 25.5625 30.046875 25.4375 29.417969 25.472656 C 28.761719 25.511719 28.640625 25.417969 29.097656 25.226562 C 29.351562 25.117188 29.554688 25.105469 29.984375 25.164062 C 30.292969 25.203125 30.765625 25.230469 31.03125 25.222656 C 31.6875 25.203125 31.867188 24.992188 32.023438 24.066406 C 32.09375 23.648438 32.199219 23.320312 32.292969 23.242188 C 32.378906 23.167969 32.792969 22.972656 33.214844 22.8125 C 33.640625 22.652344 34.023438 22.480469 34.074219 22.4375 C 34.191406 22.324219 34.484375 22.332031 34.484375 22.445312 C 34.484375 22.5 34.421875 22.5625 34.347656 22.59375 C 34.273438 22.621094 34.234375 22.679688 34.261719 22.71875 C 34.285156 22.761719 34.226562 22.820312 34.128906 22.851562 C 33.820312 22.949219 33.285156 23.625 33.339844 23.84375 C 33.503906 24.492188 33.503906 24.542969 33.324219 24.847656 C 33.222656 25.019531 33.164062 25.183594 33.195312 25.214844 C 33.222656 25.242188 33.484375 25.265625 33.773438 25.265625 C 34.203125 25.265625 34.289062 25.292969 34.246094 25.402344 C 34.21875 25.476562 34.238281 25.539062 34.292969 25.539062 C 34.347656 25.539062 34.394531 25.582031 34.394531 25.628906 C 34.394531 25.679688 34.296875 25.722656 34.175781 25.722656 C 34.054688 25.722656 33.757812 25.8125 33.519531 25.917969 C 33.277344 26.027344 32.859375 26.140625 32.589844 26.167969 L 32.097656 26.222656 L 31.753906 26.859375 C 31.5625 27.210938 31.40625 27.605469 31.40625 27.742188 C 31.40625 27.875 31.363281 28.011719 31.3125 28.042969 C 31.265625 28.074219 31.222656 28.179688 31.222656 28.277344 C 31.222656 28.375 31.183594 28.453125 31.132812 28.453125 C 31.082031 28.453125 31.042969 28.554688 31.042969 28.679688 C 31.042969 28.964844 30.878906 28.980469 30.820312 28.703125 Z M 15.101562 26.144531 C 15.101562 26.128906 15.304688 25.984375 15.554688 25.828125 C 16.0625 25.511719 16.109375 25.402344 15.773438 25.316406 C 15.644531 25.285156 15.386719 25.160156 15.203125 25.035156 C 14.964844 24.878906 14.640625 24.78125 14.101562 24.710938 C 13.054688 24.574219 12.996094 24.546875 13.460938 24.386719 C 13.78125 24.277344 13.933594 24.269531 14.230469 24.351562 C 14.78125 24.503906 15.984375 24.507812 16.492188 24.363281 C 17.101562 24.1875 17.21875 23.898438 17.195312 22.632812 C 17.171875 21.574219 17.210938 21.441406 17.792969 20.492188 C 18.003906 20.144531 18.179688 19.773438 18.183594 19.671875 C 18.183594 19.570312 18.222656 19.425781 18.269531 19.347656 C 18.332031 19.25 18.359375 19.355469 18.359375 19.707031 C 18.363281 20.171875 18.371094 20.191406 18.503906 20.027344 C 18.640625 19.859375 18.644531 19.863281 18.597656 20.144531 C 18.558594 20.363281 18.582031 20.441406 18.675781 20.441406 C 18.902344 20.441406 18.941406 21.035156 18.765625 21.699219 C 18.511719 22.648438 18.496094 23.4375 18.71875 24.171875 L 18.90625 24.796875 L 19.410156 24.863281 C 19.6875 24.898438 20.105469 24.902344 20.339844 24.871094 C 20.726562 24.820312 20.746094 24.828125 20.585938 24.949219 C 20.488281 25.023438 20.460938 25.085938 20.523438 25.085938 C 20.585938 25.085938 20.613281 25.125 20.582031 25.175781 C 20.550781 25.226562 20.394531 25.265625 20.234375 25.265625 C 20.078125 25.265625 19.660156 25.351562 19.3125 25.457031 C 18.71875 25.632812 17.480469 25.714844 17.28125 25.589844 C 17.238281 25.5625 16.941406 25.664062 16.625 25.8125 C 16.144531 26.039062 15.101562 26.265625 15.101562 26.144531 Z M 27.90625 25.078125 C 28.691406 24.355469 28.703125 24.304688 28.101562 24.027344 C 27.703125 23.84375 27.460938 23.796875 26.921875 23.800781 C 26.546875 23.800781 26.242188 23.773438 26.242188 23.734375 C 26.242188 23.539062 26.917969 23.433594 27.738281 23.492188 C 28.867188 23.578125 29.410156 23.5 29.410156 23.25 C 29.410156 23.144531 29.304688 22.9375 29.175781 22.78125 C 28.878906 22.425781 28.925781 22.019531 29.316406 21.488281 C 29.464844 21.289062 29.746094 20.898438 29.941406 20.621094 C 30.136719 20.34375 30.367188 20.058594 30.449219 19.988281 C 30.585938 19.875 30.59375 19.902344 30.535156 20.347656 C 30.472656 20.8125 30.480469 20.832031 30.667969 20.78125 C 30.890625 20.722656 30.914062 20.820312 30.734375 21.105469 C 30.5 21.480469 30.488281 21.675781 30.6875 21.90625 C 30.933594 22.1875 30.878906 22.679688 30.550781 23.175781 C 30.421875 23.371094 30.316406 23.570312 30.316406 23.617188 C 30.316406 23.734375 30.550781 23.808594 31.128906 23.871094 C 31.53125 23.910156 31.640625 23.957031 31.652344 24.085938 C 31.660156 24.222656 31.609375 24.238281 31.3125 24.199219 C 31.101562 24.171875 30.773438 24.210938 30.507812 24.300781 C 30.261719 24.378906 29.980469 24.445312 29.886719 24.445312 C 29.796875 24.445312 29.558594 24.566406 29.363281 24.710938 C 28.847656 25.085938 28.15625 25.421875 27.742188 25.492188 L 27.390625 25.554688 Z M 11.183594 24.902344 C 11.15625 24.828125 11.082031 24.5625 11.015625 24.308594 C 10.953125 24.058594 10.789062 23.601562 10.652344 23.289062 C 10.265625 22.414062 10.246094 22.183594 10.519531 21.605469 C 10.648438 21.332031 10.753906 21.070312 10.753906 21.023438 C 10.753906 20.882812 9.703125 20.625 9.136719 20.625 C 8.84375 20.625 8.46875 20.597656 8.308594 20.566406 L 8.015625 20.503906 L 8.3125 20.378906 C 8.535156 20.285156 8.863281 20.269531 9.664062 20.316406 C 10.414062 20.359375 10.777344 20.34375 10.921875 20.265625 C 11.039062 20.203125 11.253906 19.875 11.425781 19.503906 C 11.777344 18.734375 11.988281 18.519531 12.632812 18.265625 C 12.898438 18.160156 13.3125 17.972656 13.558594 17.847656 C 14.097656 17.574219 14.285156 17.550781 14.074219 17.785156 C 13.992188 17.878906 13.945312 17.972656 13.972656 18 C 14 18.027344 13.839844 18.230469 13.617188 18.449219 C 13.332031 18.734375 13.195312 18.953125 13.148438 19.210938 C 13.109375 19.414062 13.019531 19.667969 12.949219 19.78125 C 12.796875 20.015625 12.761719 19.992188 13.632812 20.214844 C 13.96875 20.296875 14.332031 20.332031 14.515625 20.296875 C 14.769531 20.25 14.828125 20.269531 14.828125 20.386719 C 14.828125 20.464844 14.839844 20.558594 14.851562 20.59375 C 14.863281 20.628906 14.671875 20.667969 14.421875 20.683594 C 14.171875 20.695312 13.589844 20.800781 13.128906 20.910156 L 12.289062 21.117188 L 12.15625 21.558594 C 12.085938 21.804688 12 22.148438 11.964844 22.328125 C 11.925781 22.539062 11.84375 22.664062 11.730469 22.695312 C 11.566406 22.738281 11.558594 22.800781 11.617188 23.628906 C 11.660156 24.214844 11.648438 24.535156 11.585938 24.574219 C 11.53125 24.605469 11.457031 24.582031 11.417969 24.515625 C 11.367188 24.441406 11.324219 24.511719 11.289062 24.71875 C 11.257812 24.914062 11.214844 24.984375 11.183594 24.902344 Z M 36.160156 24.925781 C 36.058594 24.902344 35.863281 24.796875 35.722656 24.699219 C 35.507812 24.546875 35.335938 24.519531 34.703125 24.53125 C 34.285156 24.539062 33.941406 24.523438 33.941406 24.496094 C 33.941406 24.472656 34.09375 24.382812 34.28125 24.304688 C 34.507812 24.203125 34.851562 24.160156 35.320312 24.167969 C 35.707031 24.175781 36.023438 24.160156 36.023438 24.132812 C 36.023438 24.105469 35.972656 24 35.914062 23.902344 C 35.816406 23.742188 35.835938 23.6875 36.09375 23.453125 C 36.253906 23.304688 36.386719 23.140625 36.386719 23.09375 C 36.386719 22.992188 37.960938 21.988281 38.21875 21.917969 C 38.476562 21.851562 38.40625 22.0625 38.015625 22.523438 C 37.605469 23.015625 37.597656 23.046875 37.808594 23.285156 C 37.9375 23.425781 37.945312 23.5 37.863281 23.722656 C 37.742188 24.039062 37.769531 24.046875 38.4375 23.871094 C 38.820312 23.773438 38.929688 23.773438 39.0625 23.871094 C 39.152344 23.9375 39.210938 24.003906 39.1875 24.019531 C 39.167969 24.039062 38.800781 24.199219 38.378906 24.378906 C 37.957031 24.558594 37.488281 24.769531 37.335938 24.847656 C 37.074219 24.988281 36.539062 25.023438 36.160156 24.925781 Z M 23.078125 23.714844 C 22.855469 23.667969 22.3125 23.503906 21.867188 23.351562 C 21.425781 23.195312 20.953125 23.078125 20.820312 23.085938 C 20.261719 23.121094 19.71875 23.074219 19.71875 22.992188 C 19.71875 22.941406 19.8125 22.898438 19.925781 22.898438 C 20.039062 22.898438 20.226562 22.835938 20.335938 22.753906 C 20.5 22.640625 20.597656 22.628906 20.824219 22.710938 C 21.128906 22.816406 22.191406 22.839844 22.726562 22.75 C 23.25 22.664062 23.269531 22.265625 22.761719 21.992188 C 22.386719 21.789062 22.367188 21.535156 22.707031 21.25 C 22.867188 21.113281 22.976562 20.960938 22.945312 20.910156 C 22.84375 20.746094 23.082031 20.375 23.421875 20.1875 C 23.980469 19.871094 26.351562 19.074219 26.738281 19.074219 C 26.953125 19.074219 26.902344 19.21875 26.644531 19.335938 C 26.515625 19.394531 26.4375 19.480469 26.46875 19.53125 C 26.5 19.582031 26.460938 19.648438 26.382812 19.675781 C 26.304688 19.707031 26.265625 19.769531 26.292969 19.8125 C 26.320312 19.859375 26.300781 19.894531 26.25 19.894531 C 26.09375 19.894531 25.503906 20.460938 25.414062 20.699219 C 25.347656 20.878906 25.375 20.992188 25.570312 21.269531 C 25.75 21.53125 25.800781 21.699219 25.769531 21.941406 C 25.722656 22.367188 25.878906 22.40625 26.882812 22.234375 C 27.671875 22.097656 27.792969 22.105469 27.625 22.273438 C 27.570312 22.328125 27.542969 22.429688 27.570312 22.496094 C 27.601562 22.574219 27.523438 22.640625 27.359375 22.675781 C 27.21875 22.710938 26.777344 22.859375 26.378906 23.011719 C 24.378906 23.769531 23.863281 23.878906 23.078125 23.714844 Z M 2.328125 17.851562 C 2.328125 17.832031 2.582031 17.660156 2.894531 17.46875 C 3.542969 17.070312 4.140625 16.558594 4.140625 16.390625 C 4.140625 16.328125 3.957031 16.207031 3.730469 16.121094 C 3.390625 15.988281 3.144531 15.972656 2.214844 16.023438 C 1.605469 16.054688 1.015625 16.101562 0.902344 16.125 C 0.539062 16.199219 0.6875 16.007812 1.128906 15.835938 C 1.449219 15.710938 1.734375 15.671875 2.257812 15.695312 C 3.007812 15.726562 3.746094 15.539062 4.457031 15.132812 C 5.0625 14.789062 5.140625 14.253906 4.898438 12.042969 C 4.851562 11.605469 4.894531 11.347656 5.144531 10.492188 C 5.351562 9.792969 5.445312 9.277344 5.449219 8.855469 C 5.453125 8.179688 5.5625 8.105469 5.730469 8.65625 C 5.792969 8.855469 5.847656 8.964844 5.851562 8.902344 C 5.867188 8.699219 6.042969 8.78125 6.042969 8.992188 C 6.042969 9.105469 6.070312 9.296875 6.101562 9.414062 L 6.160156 9.628906 L 6.28125 9.414062 C 6.394531 9.203125 6.398438 9.207031 6.402344 9.542969 C 6.402344 9.75 6.441406 9.867188 6.496094 9.835938 C 6.550781 9.800781 6.585938 9.925781 6.585938 10.148438 C 6.585938 10.351562 6.628906 10.519531 6.679688 10.519531 C 6.746094 10.519531 6.757812 10.769531 6.714844 11.28125 C 6.660156 11.972656 6.671875 12.058594 6.839844 12.226562 C 7.089844 12.480469 7.1875 13.445312 7.050781 14.332031 C 6.992188 14.703125 6.96875 15.027344 6.996094 15.054688 C 7.023438 15.082031 7.214844 15.113281 7.425781 15.128906 C 8.097656 15.167969 9.023438 15.304688 9.09375 15.375 C 9.132812 15.414062 9.101562 15.480469 9.027344 15.527344 C 8.929688 15.59375 8.957031 15.613281 9.144531 15.613281 C 9.28125 15.617188 9.394531 15.652344 9.394531 15.699219 C 9.394531 15.933594 7.664062 16.34375 6.675781 16.34375 C 6.105469 16.34375 5.984375 16.378906 5.636719 16.617188 C 5.417969 16.769531 5.214844 16.890625 5.179688 16.890625 C 5.148438 16.890625 5.011719 16.964844 4.878906 17.058594 C 4.589844 17.261719 3.828125 17.527344 3.53125 17.527344 C 3.414062 17.527344 3.160156 17.609375 2.964844 17.710938 C 2.636719 17.878906 2.328125 17.945312 2.328125 17.851562 Z M 11.648438 17.300781 C 11.617188 17.25 11.558594 17.023438 11.523438 16.800781 C 11.484375 16.574219 11.363281 16.207031 11.25 15.980469 C 11 15.476562 10.84375 14.761719 10.84375 14.121094 C 10.84375 13.765625 10.914062 13.5 11.117188 13.101562 C 11.265625 12.808594 11.410156 12.441406 11.441406 12.289062 C 11.488281 12.027344 11.472656 12.007812 11.027344 11.847656 C 10.625 11.703125 10.386719 11.6875 9.339844 11.730469 C 8.566406 11.765625 8.140625 11.753906 8.171875 11.699219 C 8.203125 11.648438 8.277344 11.609375 8.339844 11.609375 C 8.398438 11.609375 8.550781 11.539062 8.671875 11.449219 C 8.855469 11.320312 9.097656 11.292969 9.984375 11.289062 C 10.917969 11.285156 11.136719 11.257812 11.539062 11.074219 C 11.941406 10.894531 12.039062 10.796875 12.226562 10.394531 C 12.347656 10.136719 12.496094 9.722656 12.554688 9.472656 C 12.695312 8.90625 12.882812 8.605469 13.09375 8.605469 C 13.375 8.605469 14.128906 8.3125 14.664062 7.996094 C 15.246094 7.65625 15.296875 7.640625 15.222656 7.835938 C 15.179688 7.953125 15.214844 7.964844 15.421875 7.914062 C 15.632812 7.859375 15.664062 7.875 15.617188 8 C 15.585938 8.082031 15.597656 8.152344 15.648438 8.152344 C 15.832031 8.152344 15.722656 8.339844 15.417969 8.535156 C 15.246094 8.648438 15.101562 8.773438 15.101562 8.8125 C 15.101562 8.921875 16.671875 8.890625 17.1875 8.769531 C 17.445312 8.710938 17.675781 8.613281 17.699219 8.554688 C 17.71875 8.492188 17.65625 8.285156 17.550781 8.09375 C 17.160156 7.359375 17.3125 7.054688 18.5 6.175781 C 19.546875 5.402344 19.6875 5.320312 19.605469 5.539062 C 19.574219 5.617188 19.597656 5.699219 19.65625 5.71875 C 19.734375 5.746094 19.722656 5.808594 19.613281 5.929688 C 19.53125 6.023438 19.46875 6.125 19.476562 6.152344 C 19.488281 6.179688 19.339844 6.339844 19.15625 6.503906 C 18.886719 6.738281 18.816406 6.871094 18.816406 7.109375 C 18.816406 7.359375 18.867188 7.445312 19.085938 7.558594 C 19.46875 7.757812 19.515625 8.058594 19.242188 8.550781 C 19.117188 8.777344 19.039062 8.980469 19.066406 9.011719 C 19.09375 9.039062 19.414062 9.0625 19.78125 9.0625 C 20.3125 9.0625 20.445312 9.089844 20.445312 9.199219 C 20.445312 9.289062 20.539062 9.335938 20.734375 9.335938 C 21.167969 9.335938 20.953125 9.457031 20.039062 9.730469 C 18.707031 10.128906 17.019531 10.035156 16.277344 9.519531 C 15.929688 9.28125 15.734375 9.222656 15.171875 9.199219 C 14.589844 9.179688 14.554688 9.203125 14.160156 9.894531 C 13.859375 10.414062 13.738281 10.820312 13.832031 10.972656 C 13.910156 11.097656 14.480469 11.109375 15.441406 11.011719 C 15.832031 10.96875 16.007812 10.984375 16.007812 11.054688 C 16.007812 11.109375 15.957031 11.15625 15.894531 11.15625 C 15.832031 11.160156 15.851562 11.203125 15.9375 11.253906 C 16.210938 11.414062 16.117188 11.492188 15.578125 11.550781 C 15.289062 11.585938 14.753906 11.710938 14.382812 11.835938 C 14.011719 11.960938 13.585938 12.085938 13.433594 12.117188 C 13.179688 12.164062 13.125 12.246094 12.851562 12.9375 C 12.605469 13.5625 12.558594 13.773438 12.613281 14.078125 C 12.65625 14.34375 12.644531 14.4375 12.574219 14.394531 C 12.507812 14.351562 12.472656 14.457031 12.472656 14.710938 C 12.472656 15.003906 12.445312 15.078125 12.34375 15.039062 C 12.242188 15 12.207031 15.09375 12.183594 15.460938 C 12.164062 15.796875 12.121094 15.925781 12.039062 15.910156 C 11.945312 15.890625 11.929688 16 11.972656 16.410156 C 12.027344 16.886719 12.019531 16.921875 11.894531 16.765625 C 11.769531 16.609375 11.757812 16.625 11.734375 16.996094 C 11.71875 17.210938 11.679688 17.351562 11.648438 17.300781 Z M 24.847656 7.765625 C 24.8125 7.53125 24.640625 6.976562 24.46875 6.539062 C 24.300781 6.097656 24.160156 5.625 24.160156 5.484375 C 24.160156 5.269531 24.09375 5.199219 23.730469 5.035156 C 23.371094 4.871094 23.101562 4.832031 22.128906 4.8125 C 21.488281 4.796875 20.941406 4.765625 20.917969 4.742188 C 20.894531 4.714844 20.976562 4.65625 21.101562 4.609375 C 21.230469 4.558594 21.363281 4.472656 21.398438 4.417969 C 21.441406 4.347656 21.640625 4.335938 22.023438 4.375 C 22.695312 4.449219 23.539062 4.261719 24.140625 3.90625 C 24.664062 3.597656 24.820312 3.226562 24.738281 2.492188 L 24.675781 1.945312 L 25.265625 1.339844 C 25.589844 1.003906 25.988281 0.535156 26.152344 0.300781 C 26.492188 -0.1875 26.558594 -0.230469 26.476562 0.0898438 C 26.449219 0.210938 26.460938 0.335938 26.507812 0.363281 C 26.558594 0.394531 26.523438 0.542969 26.425781 0.710938 C 26.054688 1.355469 25.9375 2.339844 26.1875 2.703125 C 26.382812 2.984375 26.371094 3.441406 26.152344 3.867188 C 25.941406 4.289062 25.992188 4.328125 26.746094 4.328125 C 27.125 4.328125 27.238281 4.359375 27.238281 4.464844 C 27.238281 4.539062 27.300781 4.601562 27.375 4.601562 C 27.449219 4.601562 27.511719 4.640625 27.511719 4.691406 C 27.511719 4.742188 27.378906 4.78125 27.214844 4.78125 C 27.054688 4.78125 26.632812 4.867188 26.28125 4.972656 L 25.640625 5.164062 L 25.484375 5.632812 C 25.160156 6.621094 25.050781 7.101562 25.097656 7.371094 C 25.125 7.523438 25.09375 7.773438 25.03125 7.921875 L 24.914062 8.195312 Z M 31.089844 5.960938 C 30.699219 5.492188 30.441406 5.371094 30.550781 5.707031 C 30.597656 5.863281 30.582031 5.890625 30.464844 5.847656 C 30.367188 5.808594 30.316406 5.839844 30.316406 5.9375 C 30.316406 6.019531 30.105469 5.808594 29.84375 5.46875 C 29.179688 4.613281 29.050781 4.402344 29.050781 4.183594 C 29.050781 3.71875 28.519531 3.582031 27.304688 3.730469 C 27.019531 3.765625 26.785156 3.769531 26.785156 3.742188 C 26.785156 3.714844 26.945312 3.613281 27.136719 3.511719 C 27.40625 3.375 27.597656 3.34375 27.929688 3.382812 C 28.292969 3.421875 28.476562 3.382812 28.972656 3.15625 C 29.699219 2.820312 30.535156 2.671875 31.578125 2.699219 C 32.007812 2.710938 32.441406 2.691406 32.546875 2.65625 C 32.652344 2.621094 32.835938 2.632812 32.953125 2.675781 C 33.152344 2.753906 33.089844 2.800781 32.3125 3.164062 C 31.835938 3.386719 31.316406 3.621094 31.15625 3.683594 C 30.996094 3.75 30.863281 3.8125 30.863281 3.828125 C 30.863281 3.839844 30.964844 4.082031 31.089844 4.363281 C 31.210938 4.648438 31.316406 4.933594 31.316406 5 C 31.316406 5.070312 31.378906 5.175781 31.453125 5.242188 C 31.53125 5.304688 31.570312 5.417969 31.542969 5.492188 C 31.515625 5.566406 31.542969 5.683594 31.601562 5.757812 C 31.6875 5.859375 31.683594 5.90625 31.589844 5.964844 C 31.523438 6.003906 31.492188 6.101562 31.523438 6.183594 C 31.636719 6.480469 31.4375 6.378906 31.089844 5.960938 Z M 31.089844 5.960938 " fill-opacity="1" fill-rule="nonzero"/></g></svg>