<svg xmlns="http://www.w3.org/2000/svg" xmlns:xlink="http://www.w3.org/1999/xlink" width="200" zoomAndPan="magnify" viewBox="0 0 150 86.249997" height="115" preserveAspectRatio="xMidYMid meet" version="1.0"><defs><clipPath id="id1"><path d="M 0.648438 69 L 22 69 L 22 85.507812 L 0.648438 85.507812 Z M 0.648438 69 " clip-rule="nonzero"/></clipPath><clipPath id="id2"><path d="M 97.265625 52.597656 L 149.351562 52.597656 L 149.351562 85.507812 L 97.265625 85.507812 Z M 97.265625 52.597656 " clip-rule="nonzero"/></clipPath><clipPath id="id3"><path d="M 8 63 L 30 63 L 30 85.507812 L 8 85.507812 Z M 8 63 " clip-rule="nonzero"/></clipPath><clipPath id="id4"><path d="M 1 82 L 9 82 L 9 85.507812 L 1 85.507812 Z M 1 82 " clip-rule="nonzero"/></clipPath><clipPath id="id5"><path d="M 8 81 L 11 81 L 11 85.507812 L 8 85.507812 Z M 8 81 " clip-rule="nonzero"/></clipPath><clipPath id="id6"><path d="M 79.207031 69.304688 L 94.414062 69.304688 L 94.414062 85.507812 L 79.207031 85.507812 Z M 79.207031 69.304688 " clip-rule="nonzero"/></clipPath><clipPath id="id7"><path d="M 73 1.441406 L 74 1.441406 L 74 14 L 73 14 Z M 73 1.441406 " clip-rule="nonzero"/></clipPath></defs><g clip-path="url(#id1)"><path fill="#ffffff" d="M 1.121094 86.183594 C 8.410156 81.59375 15.472656 76.382812 21.292969 69.972656 C 21.644531 69.585938 21.117188 69.070312 20.722656 69.402344 C 14.160156 74.984375 7.511719 80.371094 0.859375 85.839844 C 0.667969 86 0.914062 86.3125 1.121094 86.183594 " fill-opacity="1" fill-rule="nonzero"/></g><path fill="#ffffff" d="M 17.808594 72.832031 C 20.820312 71.113281 23.421875 68.808594 26.113281 66.628906 C 27.25 65.703125 28.5625 64.183594 29.882812 64.046875 C 32.914062 63.722656 34.480469 66.335938 33.714844 69.269531 C 33.640625 69.554688 33.808594 69.925781 34.121094 69.988281 C 39.171875 70.957031 38.050781 73.453125 40.972656 75.746094 C 41.851562 76.429688 43.234375 76.519531 44.316406 76.777344 C 45.050781 76.949219 45.355469 75.851562 44.628906 75.640625 C 43.664062 75.355469 42.476562 75.238281 41.769531 74.617188 C 40.84375 73.792969 40.601562 72.160156 39.761719 71.234375 C 38.796875 70.175781 37.445312 70.050781 36.433594 69.261719 C 34.566406 67.800781 35.921875 67.207031 34.898438 65.335938 C 34.304688 64.246094 30.566406 62.429688 29.289062 62.636719 C 28.070312 62.832031 26.882812 64.34375 25.941406 65.132812 C 23.113281 67.515625 20.21875 69.976562 17.699219 72.6875 C 17.625 72.765625 17.714844 72.886719 17.808594 72.832031 " fill-opacity="1" fill-rule="nonzero"/><path fill="#ffffff" d="M 34.015625 65.566406 C 38.527344 63.417969 42.464844 59.550781 46.132812 56.210938 C 49.804688 52.863281 54.007812 49.355469 56.515625 45 C 56.585938 44.871094 56.433594 44.691406 56.304688 44.785156 C 52.421875 47.570312 49.296875 51.480469 45.800781 54.742188 C 41.945312 58.339844 37.359375 61.445312 33.902344 65.417969 C 33.832031 65.5 33.917969 65.609375 34.015625 65.566406 " fill-opacity="1" fill-rule="nonzero"/><path fill="#ffffff" d="M 56.148438 45.320312 C 57.882812 46.117188 58.695312 46.328125 60.089844 47.867188 C 61.730469 49.6875 60.917969 49.410156 61.6875 50.859375 C 62.257812 51.925781 62.496094 52.0625 63.511719 52.625 C 68.074219 55.164062 71.296875 60.578125 74.796875 64.5 C 75.121094 64.867188 75.75 64.386719 75.476562 63.976562 C 73.730469 61.328125 71.746094 58.894531 69.597656 56.5625 C 67.9375 54.753906 65.683594 53.199219 64.152344 51.335938 C 62.832031 49.726562 63.492188 47.851562 62.117188 46.363281 C 60.777344 44.90625 58.207031 44.679688 56.378906 44.453125 C 55.929688 44.398438 55.742188 45.132812 56.148438 45.320312 " fill-opacity="1" fill-rule="nonzero"/><path fill="#ffffff" d="M 65.035156 52.71875 C 68.039062 50.105469 71.535156 45.457031 76.253906 46.578125 C 78.171875 47.035156 81.660156 50.96875 83.425781 52.308594 C 83.621094 52.460938 84.019531 52.460938 84.21875 52.308594 C 88.484375 49.0625 89.742188 48.089844 93.476562 52.738281 C 94.492188 54 95.59375 55.253906 96.652344 56.480469 C 100.050781 60.441406 103.574219 64.316406 107.410156 67.855469 C 108.007812 68.40625 108.777344 67.589844 108.285156 66.976562 C 102.734375 60.066406 95.902344 54.363281 90.261719 47.632812 C 90.171875 47.527344 89.984375 47.480469 89.855469 47.523438 C 87.648438 48.320312 85.910156 49.46875 83.570312 49.3125 C 80.203125 49.085938 77.15625 45.917969 74.464844 43.996094 C 74.289062 43.871094 74.0625 43.945312 73.914062 44.066406 C 70.695312 46.699219 67.84375 49.652344 64.859375 52.542969 C 64.746094 52.65625 64.917969 52.824219 65.035156 52.71875 " fill-opacity="1" fill-rule="nonzero"/><g clip-path="url(#id2)"><path fill="#ffffff" d="M 98.316406 58.117188 C 102.003906 55.605469 105.175781 54.734375 109.070312 57.671875 C 109.25 57.8125 109.492188 57.722656 109.644531 57.597656 C 115.511719 52.921875 118.082031 56.632812 122.027344 60.425781 C 125.621094 63.878906 129.105469 67.375 132.539062 70.992188 C 137.621094 76.34375 142.71875 81.722656 148.277344 86.585938 C 149.085938 87.296875 149.800781 86.5625 149.085938 85.753906 C 140.28125 75.8125 130.234375 66.890625 120.851562 57.507812 C 119.847656 56.503906 117.136719 52.777344 115.28125 52.660156 C 110.359375 52.359375 110.65625 57.664062 104.367188 53.019531 C 104.25 52.933594 104.039062 52.9375 103.921875 53.019531 C 101.878906 54.441406 99.953125 55.996094 97.910156 57.417969 C 97.492188 57.710938 97.886719 58.410156 98.316406 58.117188 " fill-opacity="1" fill-rule="nonzero"/></g><path fill="#ffffff" d="M 65.089844 52.875 C 66.929688 51.824219 68.425781 50.554688 70.027344 49.167969 C 70.898438 48.414062 71.757812 47.632812 72.667969 46.925781 C 73.667969 46.148438 74.492188 45.96875 74.769531 44.691406 C 74.867188 44.253906 74.566406 43.773438 74.085938 43.789062 C 72.902344 43.824219 72.644531 44.324219 71.84375 45.160156 C 71.039062 46.003906 70.15625 46.78125 69.324219 47.597656 C 67.730469 49.167969 66.199219 50.726562 64.75 52.433594 C 64.554688 52.667969 64.800781 53.039062 65.089844 52.875 " fill-opacity="1" fill-rule="nonzero"/><path fill="#ffffff" d="M 48.40625 78.78125 C 48.046875 77.929688 47.234375 77.253906 46.46875 76.777344 C 45.644531 76.261719 44.546875 75.472656 43.546875 75.53125 C 43.238281 75.546875 43.039062 75.933594 43.285156 76.167969 C 43.886719 76.75 44.789062 76.90625 45.539062 77.269531 C 46.367188 77.667969 47.753906 78.113281 48.296875 78.84375 C 48.347656 78.90625 48.433594 78.855469 48.40625 78.78125 " fill-opacity="1" fill-rule="nonzero"/><g clip-path="url(#id3)"><path fill="#ffffff" d="M 28.964844 63.835938 C 27.230469 65.011719 26.011719 66.328125 24.757812 67.996094 C 22.648438 70.796875 20.601562 73.035156 18.226562 75.582031 C 16.417969 77.523438 15.390625 79.925781 13.519531 81.773438 C 11.980469 83.292969 10.160156 84.113281 8.914062 85.90625 C 8.789062 86.082031 9.078125 86.246094 9.195312 86.074219 C 10.574219 84.097656 12.652344 83.496094 14.214844 81.859375 C 15.90625 80.085938 16.769531 77.65625 18.457031 75.816406 C 19.9375 74.207031 21.648438 72.835938 23.019531 71.121094 C 25.035156 68.605469 26.320312 66.023438 29.132812 64.125 C 29.304688 64.003906 29.140625 63.71875 28.964844 63.835938 " fill-opacity="1" fill-rule="nonzero"/></g><path fill="#ffffff" d="M 30.152344 63.804688 C 30.363281 63.804688 30.363281 63.472656 30.152344 63.472656 C 29.9375 63.472656 29.9375 63.804688 30.152344 63.804688 " fill-opacity="1" fill-rule="nonzero"/><path fill="#ffffff" d="M 40.859375 60.507812 C 39.71875 61.304688 38.683594 62.265625 37.917969 63.441406 C 37.121094 64.667969 37.0625 66.027344 37.078125 67.453125 C 37.082031 67.667969 37.410156 67.667969 37.40625 67.453125 C 37.394531 66.070312 37.445312 64.808594 38.203125 63.605469 C 38.914062 62.476562 39.941406 61.550781 41.027344 60.792969 C 41.199219 60.671875 41.035156 60.386719 40.859375 60.507812 " fill-opacity="1" fill-rule="nonzero"/><path fill="#ffffff" d="M 37.070312 67.457031 C 37.269531 68.277344 37.710938 68.835938 38.105469 69.558594 C 38.628906 70.527344 38.613281 71.984375 38.785156 73.066406 C 38.820312 73.277344 39.136719 73.1875 39.101562 72.980469 C 38.9375 71.929688 38.933594 70.625 38.546875 69.636719 C 38.226562 68.816406 37.609375 68.28125 37.390625 67.371094 C 37.335938 67.164062 37.019531 67.25 37.070312 67.457031 " fill-opacity="1" fill-rule="nonzero"/><path fill="#ffffff" d="M 56.175781 45.566406 C 55.847656 46.675781 55.441406 47.75 54.898438 48.773438 C 54.46875 49.582031 53.863281 50.316406 53.503906 51.164062 C 53.101562 52.113281 53.117188 52.988281 53.78125 53.785156 C 53.917969 53.949219 54.152344 53.714844 54.015625 53.550781 C 52.71875 52 54.644531 50.003906 55.316406 48.679688 C 55.808594 47.710938 56.183594 46.699219 56.492188 45.65625 C 56.554688 45.449219 56.234375 45.363281 56.175781 45.566406 " fill-opacity="1" fill-rule="nonzero"/><path fill="#ffffff" d="M 53.589844 53.5625 C 53.882812 53.890625 54.1875 54.082031 54.542969 54.328125 C 54.785156 54.492188 55.042969 54.65625 55.242188 54.871094 C 55.726562 55.386719 55.980469 56.546875 55.367188 57.03125 C 55.199219 57.164062 55.433594 57.394531 55.597656 57.265625 C 56.15625 56.828125 56.273438 56.175781 56.035156 55.519531 C 55.628906 54.414062 54.542969 54.140625 53.824219 53.328125 C 53.683594 53.167969 53.449219 53.402344 53.589844 53.5625 " fill-opacity="1" fill-rule="nonzero"/><path fill="#ffffff" d="M 55.386719 57.121094 C 54.71875 57.535156 54.054688 57.960938 53.40625 58.402344 C 52.882812 58.757812 52.195312 59.105469 51.769531 59.570312 C 51.144531 60.257812 52.457031 60.972656 52.308594 61.828125 C 52.273438 62.035156 52.589844 62.125 52.628906 61.914062 C 52.691406 61.558594 52.660156 61.359375 52.515625 61.003906 C 52.273438 60.398438 51.707031 60.144531 52.289062 59.597656 C 53.207031 58.730469 54.484375 58.066406 55.554688 57.40625 C 55.734375 57.296875 55.570312 57.007812 55.386719 57.121094 " fill-opacity="1" fill-rule="nonzero"/><path fill="#ffffff" d="M 52.257812 61.789062 C 52.003906 62.738281 50.640625 63.53125 49.933594 64.140625 C 49.773438 64.28125 50.007812 64.515625 50.167969 64.375 C 50.964844 63.691406 52.289062 62.945312 52.578125 61.875 C 52.632812 61.671875 52.316406 61.582031 52.257812 61.789062 " fill-opacity="1" fill-rule="nonzero"/><path fill="#ffffff" d="M 49.898438 64.253906 C 48.644531 65.460938 48.960938 66.96875 49.984375 68.1875 C 50.117188 68.351562 50.351562 68.117188 50.21875 67.953125 C 49.308594 66.871094 49.015625 65.566406 50.128906 64.488281 C 50.285156 64.339844 50.050781 64.105469 49.898438 64.253906 " fill-opacity="1" fill-rule="nonzero"/><path fill="#ffffff" d="M 50.117188 68.296875 C 50.996094 68.792969 51.980469 68.835938 52.910156 69.1875 C 54.242188 69.695312 55.253906 70.773438 55.789062 72.078125 C 55.867188 72.273438 56.1875 72.1875 56.105469 71.988281 C 55.699219 71 55.089844 70.152344 54.214844 69.523438 C 53.011719 68.65625 51.539062 68.71875 50.28125 68.007812 C 50.097656 67.90625 49.929688 68.191406 50.117188 68.296875 " fill-opacity="1" fill-rule="nonzero"/><path fill="#ffffff" d="M 40.878906 60.667969 C 42.601562 59.339844 44.457031 58.238281 46.445312 57.359375 C 46.640625 57.273438 46.472656 56.988281 46.28125 57.074219 C 44.289062 57.949219 42.433594 59.050781 40.714844 60.382812 C 40.546875 60.511719 40.710938 60.796875 40.878906 60.667969 " fill-opacity="1" fill-rule="nonzero"/><path fill="#ffffff" d="M 46.214844 57.417969 C 46.261719 58.613281 46.308594 59.808594 46.351562 61.003906 C 46.355469 61.101562 46.457031 61.207031 46.5625 61.164062 C 47.214844 60.90625 48.382812 60.171875 48.960938 60.855469 C 49.21875 61.164062 49.3125 61.972656 49.484375 62.386719 C 49.527344 62.488281 49.710938 62.464844 49.777344 62.59375 C 50.179688 63.375 49.445312 64.933594 49.066406 65.699219 C 48.972656 65.890625 49.253906 66.058594 49.351562 65.867188 C 49.808594 64.949219 50.523438 63.488281 50.242188 62.429688 C 50.207031 62.292969 50.050781 62.246094 49.988281 62.136719 C 49.582031 61.414062 49.335938 60.976562 49.101562 60.140625 C 49.074219 60.054688 48.984375 60 48.898438 60.023438 C 48.125 60.242188 46.984375 60.964844 46.648438 60.105469 C 46.382812 59.429688 46.574219 58.144531 46.546875 57.417969 C 46.539062 57.203125 46.207031 57.203125 46.214844 57.417969 " fill-opacity="1" fill-rule="nonzero"/><path fill="#ffffff" d="M 73.566406 45.9375 C 72.433594 47.105469 70.625 48.535156 71.34375 50.378906 C 71.417969 50.574219 71.738281 50.488281 71.660156 50.289062 C 71 48.59375 72.761719 47.242188 73.800781 46.167969 C 73.949219 46.015625 73.714844 45.785156 73.566406 45.9375 " fill-opacity="1" fill-rule="nonzero"/><path fill="#ffffff" d="M 71.414062 50.417969 C 72.371094 51.789062 75.511719 53.050781 74.539062 55.183594 C 74.003906 56.359375 73.039062 56.75 73.265625 58.214844 C 73.296875 58.425781 73.617188 58.335938 73.585938 58.128906 C 73.296875 56.265625 75.71875 55.550781 75.25 53.933594 C 74.796875 52.371094 72.585938 51.519531 71.695312 50.253906 C 71.574219 50.078125 71.289062 50.242188 71.414062 50.417969 " fill-opacity="1" fill-rule="nonzero"/><path fill="#ffffff" d="M 73.269531 57.664062 C 73.191406 58.089844 73.21875 58.40625 73.359375 58.816406 C 73.441406 59.0625 73.59375 59.285156 73.707031 59.519531 C 74.011719 60.164062 73.984375 60.316406 73.972656 61.15625 C 73.953125 62.292969 74.292969 62.960938 74.984375 63.867188 C 75.113281 64.035156 75.398438 63.871094 75.273438 63.699219 C 74.921875 63.242188 74.527344 62.753906 74.359375 62.1875 C 74.195312 61.628906 74.371094 61.1875 74.359375 60.640625 C 74.339844 59.628906 73.398438 58.796875 73.589844 57.75 C 73.625 57.542969 73.308594 57.453125 73.269531 57.664062 " fill-opacity="1" fill-rule="nonzero"/><path fill="#ffffff" d="M 82.230469 51.015625 C 84.253906 53.734375 86.890625 56.097656 89.222656 58.554688 C 89.367188 58.707031 89.601562 58.472656 89.453125 58.320312 C 87.144531 55.886719 84.519531 53.542969 82.515625 50.847656 C 82.390625 50.679688 82.101562 50.84375 82.230469 51.015625 " fill-opacity="1" fill-rule="nonzero"/><path fill="#ffffff" d="M 89.535156 49.304688 C 88.339844 49.21875 87.21875 49.789062 86.738281 50.925781 C 86.210938 52.183594 86.808594 53.425781 87.453125 54.511719 C 87.5625 54.695312 87.851562 54.527344 87.738281 54.34375 C 87.203125 53.441406 86.640625 52.425781 86.945312 51.335938 C 87.269531 50.164062 88.367188 49.550781 89.535156 49.636719 C 89.746094 49.652344 89.746094 49.320312 89.535156 49.304688 " fill-opacity="1" fill-rule="nonzero"/><path fill="#ffffff" d="M 87.289062 54.234375 C 87.523438 54.558594 87.820312 54.9375 87.925781 55.335938 C 88.003906 55.652344 87.882812 56.09375 87.953125 56.445312 C 88.066406 57.03125 88.390625 57.492188 88.738281 57.96875 C 88.863281 58.136719 89.148438 57.972656 89.023438 57.800781 C 88.75 57.429688 88.386719 56.992188 88.292969 56.53125 C 88.230469 56.234375 88.34375 55.90625 88.308594 55.605469 C 88.234375 55.011719 87.914062 54.539062 87.574219 54.066406 C 87.449219 53.894531 87.164062 54.058594 87.289062 54.234375 " fill-opacity="1" fill-rule="nonzero"/><path fill="#ffffff" d="M 105.191406 55.335938 C 104.492188 55.171875 103.941406 55.511719 103.398438 55.945312 C 102.683594 56.515625 102.460938 57.082031 102.738281 57.960938 C 102.804688 58.164062 103.121094 58.078125 103.058594 57.871094 C 102.753906 56.90625 103.164062 56.503906 103.824219 56.039062 C 104.207031 55.773438 104.554688 55.527344 105.101562 55.660156 C 105.308594 55.707031 105.398438 55.386719 105.191406 55.335938 " fill-opacity="1" fill-rule="nonzero"/><path fill="#ffffff" d="M 102.820312 58.242188 C 103.9375 58.996094 108.691406 60.230469 107.183594 62.289062 C 107.058594 62.460938 107.34375 62.628906 107.46875 62.457031 C 109.203125 60.089844 104.136719 58.734375 102.988281 57.957031 C 102.8125 57.835938 102.644531 58.125 102.820312 58.242188 " fill-opacity="1" fill-rule="nonzero"/><path fill="#ffffff" d="M 107.234375 62.300781 C 106.597656 63.945312 107.132812 65.558594 107.917969 67.046875 C 108.015625 67.234375 108.300781 67.070312 108.199219 66.882812 C 107.453125 65.464844 106.941406 63.960938 107.550781 62.390625 C 107.628906 62.191406 107.308594 62.105469 107.234375 62.300781 " fill-opacity="1" fill-rule="nonzero"/><path fill="#ffffff" d="M 114.75 54.402344 C 113.984375 54.847656 112.40625 55.433594 112.488281 56.582031 C 112.515625 56.921875 112.726562 57.1875 112.949219 57.425781 C 113.503906 58.015625 114.140625 58.46875 114.65625 59.113281 C 114.785156 59.28125 115.019531 59.046875 114.886719 58.878906 C 114.441406 58.320312 113.890625 57.902344 113.402344 57.390625 C 112.171875 56.097656 114.074219 55.175781 114.917969 54.691406 C 115.101562 54.582031 114.933594 54.296875 114.75 54.402344 " fill-opacity="1" fill-rule="nonzero"/><path fill="#ffffff" d="M 114.671875 59.316406 C 115.601562 60.191406 116.875 61.003906 116.976562 62.367188 C 116.996094 62.578125 117.324219 62.578125 117.308594 62.367188 C 117.191406 60.839844 115.953125 60.070312 114.90625 59.082031 C 114.753906 58.9375 114.519531 59.167969 114.671875 59.316406 " fill-opacity="1" fill-rule="nonzero"/><path fill="#ffffff" d="M 108.105469 56.789062 C 109.40625 57.949219 110.546875 59.246094 111.679688 60.574219 C 111.726562 60.625 111.820312 60.636719 111.878906 60.597656 C 113.203125 59.746094 113.863281 61.535156 114.699219 62.371094 C 115.199219 62.875 115.824219 63.191406 116.433594 63.554688 C 116.503906 63.59375 116.621094 63.574219 116.65625 63.492188 C 116.847656 63.097656 117.015625 62.691406 117.207031 62.292969 C 117.296875 62.105469 117.015625 61.933594 116.921875 62.125 C 116.457031 63.097656 116.007812 63.050781 115.203125 62.367188 C 114.382812 61.675781 113.734375 60.714844 113.050781 59.890625 C 113.011719 59.84375 112.945312 59.839844 112.886719 59.847656 C 111.796875 60.046875 111.699219 60.066406 110.847656 59.105469 C 110.058594 58.203125 109.230469 57.351562 108.335938 56.554688 C 108.179688 56.414062 107.945312 56.644531 108.105469 56.789062 " fill-opacity="1" fill-rule="nonzero"/><g clip-path="url(#id4)"><path fill="#ffffff" d="M 1.800781 85.542969 C 3.992188 84.339844 6.25 83.292969 8.589844 82.410156 C 8.785156 82.335938 8.703125 82.015625 8.503906 82.089844 C 6.140625 82.984375 3.851562 84.039062 1.632812 85.257812 C 1.445312 85.359375 1.613281 85.644531 1.800781 85.542969 " fill-opacity="1" fill-rule="nonzero"/></g><g clip-path="url(#id5)"><path fill="#ffffff" d="M 8.667969 82.449219 C 9.324219 82.273438 10.101562 82.027344 9.980469 83.351562 C 9.976562 83.414062 9.828125 83.472656 9.828125 83.554688 C 9.800781 84.316406 9.695312 85.109375 9.199219 85.726562 C 9.070312 85.890625 9.300781 86.128906 9.433594 85.960938 C 9.808594 85.5 9.984375 85.0625 10.082031 84.476562 C 10.144531 84.09375 10.21875 83.796875 10.335938 83.457031 C 10.378906 83.332031 10.457031 83.214844 10.484375 83.078125 C 10.71875 81.789062 9.382812 81.914062 8.582031 82.128906 C 8.378906 82.183594 8.464844 82.503906 8.667969 82.449219 " fill-opacity="1" fill-rule="nonzero"/></g><g clip-path="url(#id6)"><path fill="#ffffff" d="M 79.234375 69.679688 C 83.074219 75.847656 88.199219 82.058594 93.898438 86.566406 C 94.128906 86.746094 94.429688 86.464844 94.226562 86.234375 C 89.261719 80.667969 84.195312 75.289062 79.40625 69.550781 C 79.328125 69.453125 79.171875 69.578125 79.234375 69.679688 " fill-opacity="1" fill-rule="nonzero"/></g><path fill="#ffffff" d="M 110.386719 70.535156 C 111.820312 73.53125 114.816406 75.390625 116.746094 77.988281 C 116.925781 78.230469 117.273438 78.03125 117.148438 77.753906 C 116.527344 76.414062 115.238281 75.457031 114.242188 74.40625 C 113.015625 73.109375 111.859375 71.589844 110.507812 70.4375 C 110.441406 70.382812 110.347656 70.453125 110.386719 70.535156 " fill-opacity="1" fill-rule="nonzero"/><path fill="#ffffff" d="M 49.117188 80.433594 C 49.800781 81.628906 50.550781 82.890625 51.550781 83.847656 C 51.785156 84.074219 52.117188 83.839844 52.066406 83.542969 C 51.804688 82.046875 50.660156 80.859375 49.328125 80.222656 C 49.195312 80.160156 49.035156 80.289062 49.117188 80.433594 " fill-opacity="1" fill-rule="nonzero"/><path fill="#ffffff" d="M 88.910156 58.308594 C 89.636719 58.648438 90.082031 59.464844 90.578125 60.058594 C 91.078125 60.667969 91.601562 61.257812 92.136719 61.832031 C 92.28125 61.992188 92.515625 61.753906 92.371094 61.597656 C 91.75 60.933594 91.152344 60.253906 90.582031 59.546875 C 90.125 58.984375 89.75 58.335938 89.078125 58.023438 C 88.886719 57.933594 88.71875 58.21875 88.910156 58.308594 " fill-opacity="1" fill-rule="nonzero"/><path fill="#ffffff" d="M 92.738281 62.820312 C 93.097656 63.304688 93.453125 63.785156 93.8125 64.265625 C 93.9375 64.4375 94.222656 64.269531 94.097656 64.101562 C 93.738281 63.617188 93.378906 63.136719 93.023438 62.652344 C 92.898438 62.484375 92.613281 62.648438 92.738281 62.820312 " fill-opacity="1" fill-rule="nonzero"/><path fill="#ffffff" d="M 115.921875 63.292969 C 117.03125 63.820312 117.238281 64.582031 117.90625 65.492188 C 118.082031 65.730469 118.28125 65.921875 118.535156 66.070312 C 119.105469 66.40625 119.5 66.714844 119.792969 67.34375 C 119.882812 67.539062 120.167969 67.371094 120.078125 67.175781 C 119.910156 66.820312 119.738281 66.4375 119.433594 66.179688 C 118.882812 65.710938 118.386719 65.660156 117.964844 64.957031 C 117.410156 64.042969 117.089844 63.480469 116.089844 63.007812 C 115.898438 62.914062 115.730469 63.199219 115.921875 63.292969 " fill-opacity="1" fill-rule="nonzero"/><path fill="#ffffff" d="M 79.078125 69.898438 C 79.683594 71.03125 79.808594 72.191406 78.855469 73.175781 C 78.40625 73.640625 77.761719 73.949219 77.21875 74.285156 C 76.980469 74.429688 76.269531 74.710938 76.1875 75.070312 C 75.929688 76.210938 79.59375 77.316406 78.355469 78.386719 C 78.191406 78.527344 78.425781 78.761719 78.585938 78.621094 C 79.042969 78.226562 78.988281 77.886719 78.71875 77.375 C 78.484375 76.921875 78.015625 76.539062 77.628906 76.230469 C 77.679688 76.269531 77.109375 75.820312 77.152344 75.882812 C 76.730469 75.242188 77.109375 74.871094 77.648438 74.410156 C 78.390625 73.78125 79.273438 73.503906 79.734375 72.5625 C 80.234375 71.542969 79.859375 70.65625 79.363281 69.734375 C 79.261719 69.546875 78.976562 69.710938 79.078125 69.898438 " fill-opacity="1" fill-rule="nonzero"/><path fill="#ffffff" d="M 78.339844 78.78125 C 79.222656 78.417969 79.984375 78.050781 80.773438 78.78125 C 81.527344 79.472656 82.101562 80.523438 82.710938 81.347656 C 82.839844 81.515625 83.125 81.351562 82.996094 81.179688 C 82.472656 80.46875 81.960938 79.742188 81.414062 79.046875 C 81.050781 78.578125 80.539062 78.363281 80.160156 77.949219 C 80.121094 77.90625 80.054688 77.894531 80 77.90625 C 79.398438 78.046875 78.824219 78.230469 78.25 78.460938 C 78.058594 78.542969 78.144531 78.863281 78.339844 78.78125 " fill-opacity="1" fill-rule="nonzero"/><path fill="#ffffff" d="M 83.019531 81.347656 C 82.726562 80.242188 82.585938 79.105469 84.140625 79.375 C 85.007812 79.527344 85.679688 80.292969 86.371094 80.828125 C 88.0625 82.148438 89.800781 83.410156 91.5625 84.628906 C 91.738281 84.75 91.902344 84.464844 91.730469 84.34375 C 89.683594 82.929688 87.675781 81.453125 85.726562 79.902344 C 84.046875 78.5625 84.359375 78.671875 82.265625 79.425781 C 82.1875 79.453125 82.117188 79.539062 82.148438 79.628906 C 82.359375 80.226562 82.539062 80.820312 82.703125 81.4375 C 82.753906 81.640625 83.074219 81.554688 83.019531 81.347656 " fill-opacity="1" fill-rule="nonzero"/><path fill="#ffffff" d="M 64.507812 68.230469 C 65.664062 69.285156 66.832031 70.425781 66.773438 72.125 C 66.769531 72.339844 67.097656 72.339844 67.105469 72.125 C 67.164062 70.347656 65.964844 69.113281 64.742188 67.996094 C 64.582031 67.851562 64.347656 68.082031 64.507812 68.230469 " fill-opacity="1" fill-rule="nonzero"/><path fill="#ffffff" d="M 66.652344 72.246094 C 67.109375 74.203125 64.96875 74.253906 65.035156 75.820312 C 65.082031 76.867188 66.363281 77.777344 67.019531 78.433594 C 67.167969 78.585938 67.402344 78.351562 67.253906 78.199219 C 66.8125 77.757812 66.328125 77.332031 65.925781 76.855469 C 65.382812 76.21875 65.339844 75.613281 65.953125 74.800781 C 66.101562 74.605469 66.359375 74.476562 66.519531 74.285156 C 67.050781 73.664062 67.152344 72.933594 66.972656 72.15625 C 66.921875 71.949219 66.605469 72.039062 66.652344 72.246094 " fill-opacity="1" fill-rule="nonzero"/><path fill="#ffffff" d="M 67.054688 78.480469 C 67.46875 78.992188 67.554688 79.503906 67.382812 80.113281 C 67.328125 80.320312 67.644531 80.410156 67.703125 80.203125 C 67.90625 79.46875 67.761719 78.835938 67.289062 78.25 C 67.152344 78.082031 66.921875 78.316406 67.054688 78.480469 " fill-opacity="1" fill-rule="nonzero"/><path fill="#ffffff" d="M 96.785156 68.597656 C 97.695312 69.71875 98.789062 70.824219 99.53125 72.066406 C 100.511719 73.714844 99.429688 74.722656 99.261719 76.292969 C 99.105469 77.792969 100.691406 78.304688 101.261719 79.5 C 101.355469 79.691406 101.636719 79.523438 101.546875 79.332031 C 100.789062 77.746094 99.433594 77.957031 99.964844 75.410156 C 100.09375 74.769531 100.492188 74.421875 100.46875 73.695312 C 100.398438 71.691406 98.164062 69.769531 97.019531 68.363281 C 96.886719 68.199219 96.652344 68.433594 96.785156 68.597656 " fill-opacity="1" fill-rule="nonzero"/><path fill="#ffffff" d="M 101.230469 79.414062 C 101.289062 79.976562 100.886719 80.429688 101.007812 80.988281 C 101.101562 81.429688 101.484375 81.773438 101.792969 82.0625 C 101.949219 82.210938 102.179688 81.976562 102.027344 81.832031 C 101.746094 81.636719 101.597656 81.359375 101.585938 80.988281 C 101.339844 80.675781 101.308594 80.363281 101.503906 80.058594 C 101.507812 79.792969 101.589844 79.714844 101.558594 79.414062 C 101.539062 79.203125 101.207031 79.203125 101.230469 79.414062 " fill-opacity="1" fill-rule="nonzero"/><path fill="#ffffff" d="M 125.253906 73.917969 C 127.6875 77.136719 130.515625 80.019531 133.265625 82.960938 C 133.410156 83.117188 133.644531 82.882812 133.5 82.726562 C 130.769531 79.808594 127.957031 76.945312 125.542969 73.753906 C 125.414062 73.585938 125.128906 73.75 125.253906 73.917969 " fill-opacity="1" fill-rule="nonzero"/><path fill="#ffffff" d="M 125.0625 74.03125 C 125.902344 75.605469 125.988281 77.402344 126.449219 79.101562 C 126.503906 79.304688 126.824219 79.222656 126.765625 79.015625 C 126.296875 77.285156 126.199219 75.46875 125.347656 73.863281 C 125.25 73.675781 124.964844 73.839844 125.0625 74.03125 " fill-opacity="1" fill-rule="nonzero"/><path fill="#ffffff" d="M 127.027344 80.453125 C 127.238281 80.453125 127.238281 80.125 127.027344 80.125 C 126.816406 80.125 126.8125 80.453125 127.027344 80.453125 " fill-opacity="1" fill-rule="nonzero"/><path fill="#ffffff" d="M 126.347656 78.804688 C 126.621094 79.542969 126.808594 80.28125 126.925781 81.058594 C 126.953125 81.226562 127.207031 81.210938 127.246094 81.058594 C 127.328125 80.707031 127.355469 80.191406 127.527344 79.875 C 127.921875 79.152344 128.386719 79.636719 128.855469 80.015625 C 128.949219 80.089844 129.09375 80.074219 129.132812 79.941406 C 129.347656 79.15625 130.382812 80.167969 130.59375 80.351562 C 130.753906 80.488281 130.988281 80.253906 130.828125 80.117188 C 130.222656 79.589844 129.171875 78.554688 128.8125 79.855469 C 128.90625 79.832031 128.996094 79.804688 129.089844 79.78125 C 128.742188 79.503906 128.042969 78.78125 127.546875 78.976562 C 127.117188 79.144531 127.011719 80.609375 126.925781 80.972656 C 127.03125 80.972656 127.140625 80.972656 127.246094 80.972656 C 127.125 80.191406 126.9375 79.453125 126.667969 78.714844 C 126.59375 78.519531 126.273438 78.601562 126.347656 78.804688 " fill-opacity="1" fill-rule="nonzero"/><path fill="#ffffff" d="M 24.734375 67.636719 C 19.738281 72.65625 14.746094 77.671875 9.75 82.691406 C 9.601562 82.839844 9.832031 83.078125 9.984375 82.925781 C 14.976562 77.90625 19.972656 72.890625 24.96875 67.871094 C 25.117188 67.722656 24.886719 67.488281 24.734375 67.636719 " fill-opacity="1" fill-rule="nonzero"/><path fill="#ffffff" d="M 21.785156 69.601562 C 17.636719 73.761719 13.488281 77.925781 9.34375 82.085938 C 9.191406 82.238281 9.421875 82.472656 9.574219 82.320312 C 13.722656 78.160156 17.871094 73.996094 22.019531 69.835938 C 22.167969 69.683594 21.9375 69.449219 21.785156 69.601562 " fill-opacity="1" fill-rule="nonzero"/><path fill="#ffffff" d="M 13.582031 76.839844 C 11.921875 78.511719 10.261719 80.175781 8.597656 81.847656 C 8.449219 81.996094 8.683594 82.230469 8.832031 82.082031 C 10.496094 80.414062 12.15625 78.742188 13.816406 77.078125 C 13.964844 76.925781 13.730469 76.691406 13.582031 76.839844 " fill-opacity="1" fill-rule="nonzero"/><path fill="#ffffff" d="M 8.792969 80.722656 C 8.164062 81.355469 7.53125 81.988281 6.902344 82.621094 C 6.75 82.773438 6.984375 83.003906 7.132812 82.855469 C 7.765625 82.222656 8.394531 81.589844 9.027344 80.953125 C 9.175781 80.804688 8.941406 80.570312 8.792969 80.722656 " fill-opacity="1" fill-rule="nonzero"/><path fill="#ffffff" d="M 19.71875 73.964844 C 16.5 77.199219 13.28125 80.429688 10.058594 83.664062 C 9.910156 83.8125 10.144531 84.046875 10.292969 83.894531 C 13.511719 80.664062 16.730469 77.429688 19.953125 74.199219 C 20.101562 74.046875 19.867188 73.8125 19.71875 73.964844 " fill-opacity="1" fill-rule="nonzero"/><path fill="#ffffff" d="M 14.910156 80.152344 C 13.769531 81.296875 12.628906 82.441406 11.492188 83.585938 C 11.339844 83.738281 11.574219 83.96875 11.722656 83.820312 C 12.863281 82.675781 14.003906 81.53125 15.144531 80.386719 C 15.292969 80.238281 15.058594 80.003906 14.910156 80.152344 " fill-opacity="1" fill-rule="nonzero"/><path fill="#ffffff" d="M 36.667969 63.71875 C 35.953125 64.4375 35.238281 65.15625 34.523438 65.871094 C 34.375 66.019531 34.605469 66.257812 34.757812 66.105469 C 35.472656 65.386719 36.1875 64.671875 36.902344 63.953125 C 37.054688 63.800781 36.820312 63.566406 36.667969 63.71875 " fill-opacity="1" fill-rule="nonzero"/><path fill="#ffffff" d="M 37.878906 63.457031 C 36.78125 64.558594 35.6875 65.65625 34.59375 66.757812 C 34.445312 66.90625 34.675781 67.140625 34.828125 66.988281 C 35.921875 65.890625 37.015625 64.789062 38.113281 63.691406 C 38.261719 63.542969 38.027344 63.308594 37.878906 63.457031 " fill-opacity="1" fill-rule="nonzero"/><path fill="#ffffff" d="M 37.179688 65.359375 C 36.371094 66.175781 35.558594 66.988281 34.75 67.800781 C 34.597656 67.953125 34.832031 68.1875 34.980469 68.035156 C 35.792969 67.222656 36.605469 66.40625 37.414062 65.59375 C 37.566406 65.441406 37.332031 65.207031 37.179688 65.359375 " fill-opacity="1" fill-rule="nonzero"/><path fill="#ffffff" d="M 37.105469 66.71875 C 36.433594 67.390625 35.765625 68.0625 35.097656 68.734375 C 34.945312 68.886719 35.179688 69.117188 35.328125 68.96875 C 36 68.296875 36.667969 67.625 37.335938 66.953125 C 37.488281 66.800781 37.253906 66.566406 37.105469 66.71875 " fill-opacity="1" fill-rule="nonzero"/><path fill="#ffffff" d="M 37.21875 67.648438 C 36.746094 68.125 36.269531 68.605469 35.789062 69.082031 C 35.640625 69.234375 35.875 69.46875 36.023438 69.316406 C 36.5 68.839844 36.976562 68.359375 37.453125 67.882812 C 37.605469 67.730469 37.371094 67.496094 37.21875 67.648438 " fill-opacity="1" fill-rule="nonzero"/><path fill="#ffffff" d="M 37.492188 68.386719 C 37.117188 68.761719 36.746094 69.136719 36.371094 69.511719 C 36.21875 69.660156 36.453125 69.894531 36.605469 69.742188 C 36.976562 69.367188 37.351562 68.992188 37.722656 68.617188 C 37.875 68.46875 37.640625 68.234375 37.492188 68.386719 " fill-opacity="1" fill-rule="nonzero"/><path fill="#ffffff" d="M 37.839844 69.238281 C 37.476562 69.597656 37.117188 69.964844 36.757812 70.324219 C 36.609375 70.476562 36.839844 70.710938 36.988281 70.558594 C 37.351562 70.195312 37.710938 69.835938 38.074219 69.472656 C 38.222656 69.320312 37.988281 69.085938 37.839844 69.238281 " fill-opacity="1" fill-rule="nonzero"/><path fill="#ffffff" d="M 55.605469 46.894531 C 52.105469 50.410156 48.601562 53.929688 45.097656 57.445312 C 44.949219 57.59375 45.183594 57.832031 45.332031 57.679688 C 48.835938 54.164062 52.335938 50.644531 55.839844 47.128906 C 55.988281 46.976562 55.753906 46.742188 55.605469 46.894531 " fill-opacity="1" fill-rule="nonzero"/><path fill="#ffffff" d="M 54.640625 48.949219 C 51.859375 51.742188 49.078125 54.535156 46.296875 57.328125 C 46.148438 57.480469 46.378906 57.714844 46.53125 57.5625 C 49.3125 54.769531 52.09375 51.976562 54.875 49.183594 C 55.023438 49.035156 54.792969 48.796875 54.640625 48.949219 " fill-opacity="1" fill-rule="nonzero"/><path fill="#ffffff" d="M 53.558594 51.082031 C 51.164062 53.488281 48.769531 55.894531 46.375 58.296875 C 46.222656 58.449219 46.457031 58.683594 46.609375 58.535156 C 49 56.128906 51.394531 53.722656 53.792969 51.316406 C 53.941406 51.167969 53.710938 50.929688 53.558594 51.082031 " fill-opacity="1" fill-rule="nonzero"/><path fill="#ffffff" d="M 53.304688 52.6875 C 50.953125 54.933594 48.648438 57.21875 46.378906 59.546875 C 46.230469 59.699219 46.464844 59.933594 46.613281 59.78125 C 48.878906 57.453125 51.1875 55.167969 53.535156 52.921875 C 53.6875 52.777344 53.453125 52.539062 53.304688 52.6875 " fill-opacity="1" fill-rule="nonzero"/><path fill="#ffffff" d="M 53.726562 53.621094 C 51.265625 55.800781 48.917969 58.097656 46.6875 60.515625 C 46.546875 60.675781 46.777344 60.910156 46.921875 60.75 C 49.152344 58.332031 51.5 56.035156 53.960938 53.851562 C 54.121094 53.710938 53.886719 53.480469 53.726562 53.621094 " fill-opacity="1" fill-rule="nonzero"/><path fill="#ffffff" d="M 54.332031 54.1875 C 52.296875 56.230469 50.261719 58.273438 48.230469 60.316406 C 48.078125 60.46875 48.3125 60.703125 48.460938 60.550781 C 50.496094 58.507812 52.53125 56.464844 54.5625 54.421875 C 54.714844 54.269531 54.480469 54.035156 54.332031 54.1875 " fill-opacity="1" fill-rule="nonzero"/><path fill="#ffffff" d="M 55.066406 54.808594 C 53.070312 56.8125 51.074219 58.816406 49.078125 60.820312 C 48.925781 60.96875 49.160156 61.207031 49.3125 61.054688 C 51.308594 59.050781 53.304688 57.046875 55.296875 55.042969 C 55.449219 54.890625 55.214844 54.65625 55.066406 54.808594 " fill-opacity="1" fill-rule="nonzero"/><path fill="#ffffff" d="M 55.605469 55.464844 C 53.519531 57.5625 51.433594 59.65625 49.347656 61.75 C 49.199219 61.902344 49.433594 62.136719 49.582031 61.984375 C 51.667969 59.890625 53.753906 57.796875 55.839844 55.699219 C 55.988281 55.550781 55.753906 55.316406 55.605469 55.464844 " fill-opacity="1" fill-rule="nonzero"/><path fill="#ffffff" d="M 51.851562 60.503906 C 51.164062 61.195312 50.472656 61.882812 49.785156 62.574219 C 49.632812 62.726562 49.867188 62.960938 50.015625 62.8125 C 50.707031 62.117188 51.394531 61.425781 52.085938 60.738281 C 52.234375 60.585938 52.003906 60.351562 51.851562 60.503906 " fill-opacity="1" fill-rule="nonzero"/><path fill="#ffffff" d="M 52.246094 61.246094 C 51.449219 62.046875 50.648438 62.851562 49.851562 63.652344 C 49.703125 63.800781 49.933594 64.039062 50.082031 63.886719 C 50.882812 63.085938 51.679688 62.28125 52.480469 61.480469 C 52.628906 61.332031 52.394531 61.09375 52.246094 61.246094 " fill-opacity="1" fill-rule="nonzero"/><path fill="#ffffff" d="M 80.519531 71.683594 C 79.296875 72.910156 78.070312 74.140625 76.847656 75.367188 C 76.699219 75.519531 76.933594 75.753906 77.082031 75.601562 C 78.304688 74.371094 79.527344 73.144531 80.753906 71.917969 C 80.902344 71.765625 80.667969 71.53125 80.519531 71.683594 " fill-opacity="1" fill-rule="nonzero"/><path fill="#ffffff" d="M 81.207031 72.257812 C 79.957031 73.511719 78.710938 74.765625 77.460938 76.019531 C 77.3125 76.171875 77.542969 76.40625 77.695312 76.257812 C 78.941406 75 80.191406 73.746094 81.4375 72.492188 C 81.589844 72.339844 81.359375 72.105469 81.207031 72.257812 " fill-opacity="1" fill-rule="nonzero"/><path fill="#ffffff" d="M 81.519531 73.265625 C 80.429688 74.359375 79.339844 75.453125 78.253906 76.546875 C 78.101562 76.699219 78.335938 76.929688 78.484375 76.78125 C 79.574219 75.6875 80.664062 74.59375 81.753906 73.5 C 81.902344 73.347656 81.667969 73.117188 81.519531 73.265625 " fill-opacity="1" fill-rule="nonzero"/><path fill="#ffffff" d="M 82.410156 73.628906 C 81.15625 74.886719 79.902344 76.144531 78.652344 77.402344 C 78.503906 77.554688 78.734375 77.789062 78.886719 77.636719 C 80.136719 76.378906 81.390625 75.121094 82.640625 73.867188 C 82.792969 73.714844 82.558594 73.480469 82.410156 73.628906 " fill-opacity="1" fill-rule="nonzero"/><path fill="#ffffff" d="M 82.519531 74.578125 C 81.296875 75.804688 80.074219 77.035156 78.851562 78.261719 C 78.699219 78.410156 78.933594 78.644531 79.085938 78.492188 C 80.308594 77.265625 81.527344 76.039062 82.75 74.8125 C 82.898438 74.660156 82.667969 74.425781 82.519531 74.578125 " fill-opacity="1" fill-rule="nonzero"/><path fill="#ffffff" d="M 83.429688 74.894531 C 82.371094 75.960938 81.308594 77.027344 80.246094 78.09375 C 80.097656 78.246094 80.332031 78.480469 80.480469 78.328125 C 81.542969 77.261719 82.601562 76.195312 83.664062 75.128906 C 83.8125 74.976562 83.578125 74.742188 83.429688 74.894531 " fill-opacity="1" fill-rule="nonzero"/><path fill="#ffffff" d="M 83.9375 75.675781 C 82.949219 76.664062 81.960938 77.652344 80.976562 78.644531 C 80.824219 78.792969 81.058594 79.027344 81.207031 78.875 C 82.195312 77.886719 83.183594 76.898438 84.171875 75.910156 C 84.320312 75.761719 84.085938 75.523438 83.9375 75.675781 " fill-opacity="1" fill-rule="nonzero"/><path fill="#ffffff" d="M 84.511719 76.472656 C 83.582031 77.410156 82.648438 78.34375 81.71875 79.28125 C 81.570312 79.429688 81.800781 79.664062 81.953125 79.515625 C 82.882812 78.578125 83.816406 77.644531 84.746094 76.707031 C 84.894531 76.554688 84.664062 76.324219 84.511719 76.472656 " fill-opacity="1" fill-rule="nonzero"/><path fill="#ffffff" d="M 84.917969 77.097656 C 84.210938 77.808594 83.5 78.519531 82.792969 79.230469 C 82.644531 79.382812 82.875 79.613281 83.027344 79.464844 C 83.734375 78.753906 84.441406 78.042969 85.148438 77.332031 C 85.300781 77.179688 85.066406 76.945312 84.917969 77.097656 " fill-opacity="1" fill-rule="nonzero"/><path fill="#ffffff" d="M 85.511719 77.621094 C 85.113281 78.023438 84.710938 78.425781 84.316406 78.824219 C 84.164062 78.976562 84.398438 79.210938 84.546875 79.058594 C 84.945312 78.65625 85.34375 78.257812 85.742188 77.855469 C 85.894531 77.703125 85.660156 77.46875 85.511719 77.621094 " fill-opacity="1" fill-rule="nonzero"/><path fill="#ffffff" d="M 85.675781 78.824219 C 85.476562 79.027344 85.277344 79.226562 85.078125 79.429688 C 84.929688 79.582031 85.164062 79.816406 85.3125 79.664062 C 85.511719 79.464844 85.710938 79.261719 85.90625 79.058594 C 86.054688 78.90625 85.824219 78.671875 85.675781 78.824219 " fill-opacity="1" fill-rule="nonzero"/><path fill="#ffffff" d="M 86.394531 79.332031 C 86.15625 79.570312 85.917969 79.808594 85.675781 80.046875 C 85.523438 80.199219 85.757812 80.433594 85.910156 80.28125 C 86.148438 80.042969 86.386719 79.804688 86.628906 79.566406 C 86.78125 79.414062 86.546875 79.179688 86.394531 79.332031 " fill-opacity="1" fill-rule="nonzero"/><path fill="#ffffff" d="M 87.054688 79.882812 C 86.847656 80.089844 86.644531 80.292969 86.433594 80.5 C 86.285156 80.652344 86.519531 80.886719 86.667969 80.734375 C 86.875 80.53125 87.082031 80.324219 87.289062 80.117188 C 87.4375 79.96875 87.207031 79.734375 87.054688 79.882812 " fill-opacity="1" fill-rule="nonzero"/><path fill="#ffffff" d="M 87.597656 80.574219 C 87.464844 80.707031 87.332031 80.839844 87.199219 80.976562 C 87.050781 81.125 87.28125 81.359375 87.433594 81.210938 C 87.566406 81.074219 87.699219 80.941406 87.832031 80.808594 C 87.980469 80.660156 87.746094 80.421875 87.597656 80.574219 " fill-opacity="1" fill-rule="nonzero"/><path fill="#ffffff" d="M 70.726562 47.804688 C 68.976562 49.566406 67.222656 51.324219 65.472656 53.082031 C 65.324219 53.230469 65.554688 53.46875 65.707031 53.316406 C 65.753906 53.269531 65.804688 53.21875 65.851562 53.167969 C 66.003906 53.019531 65.769531 52.785156 65.617188 52.933594 C 65.570312 52.984375 65.523438 53.03125 65.472656 53.082031 C 65.550781 53.160156 65.628906 53.238281 65.707031 53.316406 C 67.457031 51.558594 69.207031 49.796875 70.960938 48.039062 C 71.109375 47.886719 70.875 47.65625 70.726562 47.804688 " fill-opacity="1" fill-rule="nonzero"/><path fill="#ffffff" d="M 72.320312 47.121094 C 70.210938 49.238281 68.101562 51.355469 65.992188 53.476562 C 65.839844 53.625 66.074219 53.859375 66.222656 53.710938 C 68.332031 51.589844 70.445312 49.472656 72.550781 47.355469 C 72.703125 47.203125 72.46875 46.96875 72.320312 47.121094 " fill-opacity="1" fill-rule="nonzero"/><path fill="#ffffff" d="M 71.140625 49.589844 C 69.691406 51.046875 68.246094 52.5 66.796875 53.953125 C 66.648438 54.101562 66.882812 54.339844 67.03125 54.1875 C 68.476562 52.734375 69.925781 51.28125 71.375 49.824219 C 71.523438 49.675781 71.289062 49.441406 71.140625 49.589844 " fill-opacity="1" fill-rule="nonzero"/><path fill="#ffffff" d="M 71.773438 50.683594 C 70.402344 52.058594 69.03125 53.4375 67.660156 54.8125 C 67.507812 54.960938 67.742188 55.199219 67.894531 55.046875 C 69.261719 53.671875 70.632812 52.292969 72.007812 50.917969 C 72.15625 50.765625 71.921875 50.53125 71.773438 50.683594 " fill-opacity="1" fill-rule="nonzero"/><path fill="#ffffff" d="M 72.398438 51.492188 C 71.074219 52.820312 69.746094 54.15625 68.421875 55.488281 C 68.269531 55.636719 68.5 55.871094 68.652344 55.722656 C 69.980469 54.386719 71.304688 53.058594 72.632812 51.722656 C 72.78125 51.574219 72.546875 51.339844 72.398438 51.492188 " fill-opacity="1" fill-rule="nonzero"/><path fill="#ffffff" d="M 72.996094 52.113281 C 71.621094 53.492188 70.246094 54.875 68.871094 56.253906 C 68.71875 56.402344 68.953125 56.640625 69.101562 56.488281 C 70.480469 55.109375 71.855469 53.726562 73.230469 52.347656 C 73.378906 52.195312 73.148438 51.960938 72.996094 52.113281 " fill-opacity="1" fill-rule="nonzero"/><path fill="#ffffff" d="M 74.03125 52.679688 C 72.578125 54.140625 71.125 55.597656 69.671875 57.058594 C 69.519531 57.210938 69.753906 57.445312 69.90625 57.292969 C 71.355469 55.832031 72.808594 54.375 74.265625 52.914062 C 74.414062 52.761719 74.179688 52.53125 74.03125 52.679688 " fill-opacity="1" fill-rule="nonzero"/><path fill="#ffffff" d="M 74.644531 53.8125 C 73.21875 55.253906 71.785156 56.6875 70.34375 58.117188 C 70.191406 58.265625 70.425781 58.5 70.574219 58.347656 C 72.019531 56.921875 73.449219 55.488281 74.875 54.046875 C 75.023438 53.894531 74.792969 53.660156 74.644531 53.8125 " fill-opacity="1" fill-rule="nonzero"/><path fill="#ffffff" d="M 74.460938 55.222656 C 73.253906 56.433594 72.042969 57.644531 70.835938 58.859375 C 70.683594 59.007812 70.917969 59.242188 71.070312 59.089844 C 72.277344 57.878906 73.484375 56.667969 74.695312 55.457031 C 74.84375 55.304688 74.609375 55.074219 74.460938 55.222656 " fill-opacity="1" fill-rule="nonzero"/><path fill="#ffffff" d="M 73.316406 57.914062 C 72.777344 58.453125 72.242188 58.988281 71.707031 59.527344 C 71.554688 59.679688 71.789062 59.914062 71.941406 59.761719 C 72.472656 59.222656 73.011719 58.683594 73.550781 58.144531 C 73.699219 57.996094 73.464844 57.761719 73.316406 57.914062 " fill-opacity="1" fill-rule="nonzero"/><path fill="#ffffff" d="M 73.535156 58.964844 C 73.214844 59.285156 72.894531 59.605469 72.574219 59.929688 C 72.421875 60.078125 72.65625 60.3125 72.808594 60.164062 C 73.128906 59.84375 73.449219 59.523438 73.769531 59.199219 C 73.921875 59.050781 73.6875 58.816406 73.535156 58.964844 " fill-opacity="1" fill-rule="nonzero"/><path fill="#ffffff" d="M 73.921875 60.117188 C 73.578125 60.460938 73.238281 60.804688 72.894531 61.148438 C 72.746094 61.300781 72.976562 61.535156 73.128906 61.382812 C 73.472656 61.039062 73.8125 60.695312 74.15625 60.347656 C 74.304688 60.199219 74.070312 59.964844 73.921875 60.117188 " fill-opacity="1" fill-rule="nonzero"/><path fill="#ffffff" d="M 87.019531 50.054688 C 86.09375 50.980469 85.171875 51.910156 84.25 52.835938 C 84.097656 52.988281 84.328125 53.222656 84.480469 53.070312 C 85.40625 52.144531 86.328125 51.214844 87.253906 50.285156 C 87.402344 50.136719 87.171875 49.902344 87.019531 50.054688 " fill-opacity="1" fill-rule="nonzero"/><path fill="#ffffff" d="M 86.652344 51.910156 C 86.109375 52.601562 85.488281 53.203125 84.859375 53.8125 C 84.707031 53.960938 84.9375 54.195312 85.09375 54.046875 C 85.722656 53.4375 86.34375 52.835938 86.882812 52.140625 C 87.011719 51.976562 86.78125 51.742188 86.652344 51.910156 " fill-opacity="1" fill-rule="nonzero"/><path fill="#ffffff" d="M 86.886719 53.152344 C 86.425781 53.617188 85.960938 54.078125 85.5 54.542969 C 85.347656 54.695312 85.582031 54.929688 85.734375 54.777344 C 86.195312 54.3125 86.65625 53.847656 87.117188 53.386719 C 87.269531 53.234375 87.035156 53 86.886719 53.152344 " fill-opacity="1" fill-rule="nonzero"/><path fill="#ffffff" d="M 87.207031 53.851562 C 86.867188 54.1875 86.53125 54.523438 86.191406 54.859375 C 86.042969 55.007812 86.273438 55.242188 86.425781 55.089844 C 86.761719 54.757812 87.101562 54.421875 87.4375 54.089844 C 87.589844 53.9375 87.355469 53.703125 87.207031 53.851562 " fill-opacity="1" fill-rule="nonzero"/><path fill="#ffffff" d="M 87.652344 54.75 C 87.359375 55.042969 87.066406 55.332031 86.777344 55.625 C 86.625 55.773438 86.859375 56.007812 87.007812 55.859375 C 87.300781 55.566406 87.589844 55.277344 87.882812 54.984375 C 88.035156 54.835938 87.800781 54.597656 87.652344 54.75 " fill-opacity="1" fill-rule="nonzero"/><path fill="#ffffff" d="M 87.84375 55.550781 C 87.636719 55.75 87.4375 55.949219 87.246094 56.160156 C 87.101562 56.316406 87.332031 56.550781 87.476562 56.394531 C 87.671875 56.183594 87.871094 55.984375 88.074219 55.785156 C 88.230469 55.636719 88 55.402344 87.84375 55.550781 " fill-opacity="1" fill-rule="nonzero"/><path fill="#ffffff" d="M 102.027344 55.558594 C 101.242188 56.34375 100.457031 57.128906 99.675781 57.914062 C 99.527344 58.066406 99.757812 58.300781 99.910156 58.148438 C 100.691406 57.363281 101.476562 56.578125 102.257812 55.792969 C 102.40625 55.640625 102.175781 55.410156 102.027344 55.558594 " fill-opacity="1" fill-rule="nonzero"/><path fill="#ffffff" d="M 102.914062 55.78125 C 101.839844 56.859375 100.761719 57.941406 99.683594 59.023438 C 99.761719 59.101562 99.839844 59.179688 99.917969 59.257812 C 100.0625 59.113281 100.207031 58.964844 100.351562 58.820312 C 100.503906 58.667969 100.269531 58.433594 100.121094 58.585938 C 99.972656 58.730469 99.828125 58.878906 99.683594 59.023438 C 99.535156 59.175781 99.765625 59.410156 99.917969 59.257812 C 100.992188 58.175781 102.070312 57.09375 103.148438 56.011719 C 103.300781 55.863281 103.066406 55.628906 102.914062 55.78125 " fill-opacity="1" fill-rule="nonzero"/><path fill="#ffffff" d="M 102.757812 57.574219 C 102.15625 58.179688 101.550781 58.785156 100.945312 59.394531 C 100.796875 59.542969 101.03125 59.777344 101.179688 59.628906 C 101.785156 59.023438 102.386719 58.414062 102.992188 57.808594 C 103.140625 57.660156 102.910156 57.425781 102.757812 57.574219 " fill-opacity="1" fill-rule="nonzero"/><path fill="#ffffff" d="M 103.296875 58.335938 C 102.75 58.882812 102.207031 59.433594 101.664062 59.976562 C 101.511719 60.128906 101.746094 60.363281 101.894531 60.210938 C 102.441406 59.664062 102.984375 59.117188 103.527344 58.574219 C 103.679688 58.421875 103.445312 58.1875 103.296875 58.335938 " fill-opacity="1" fill-rule="nonzero"/><path fill="#ffffff" d="M 104.40625 58.851562 C 103.773438 59.484375 103.140625 60.125 102.507812 60.757812 C 102.359375 60.910156 102.59375 61.144531 102.742188 60.996094 C 103.375 60.355469 104.007812 59.722656 104.640625 59.082031 C 104.792969 58.933594 104.558594 58.699219 104.40625 58.851562 " fill-opacity="1" fill-rule="nonzero"/><path fill="#ffffff" d="M 105.015625 59.304688 C 104.332031 59.992188 103.644531 60.679688 102.960938 61.371094 C 102.808594 61.519531 103.042969 61.753906 103.191406 61.605469 C 103.878906 60.914062 104.5625 60.226562 105.25 59.539062 C 105.402344 59.386719 105.167969 59.152344 105.015625 59.304688 " fill-opacity="1" fill-rule="nonzero"/><path fill="#ffffff" d="M 106.09375 59.757812 C 105.445312 60.410156 104.800781 61.0625 104.152344 61.710938 C 104 61.863281 104.234375 62.097656 104.386719 61.949219 C 105.03125 61.292969 105.679688 60.644531 106.328125 59.992188 C 106.476562 59.839844 106.242188 59.605469 106.09375 59.757812 " fill-opacity="1" fill-rule="nonzero"/><path fill="#ffffff" d="M 106.738281 60.203125 C 105.890625 61.054688 105.039062 61.910156 104.191406 62.761719 C 104.039062 62.914062 104.273438 63.144531 104.421875 62.996094 C 105.273438 62.144531 106.121094 61.289062 106.972656 60.4375 C 107.121094 60.285156 106.886719 60.050781 106.738281 60.203125 " fill-opacity="1" fill-rule="nonzero"/><path fill="#ffffff" d="M 107.335938 60.960938 C 106.554688 61.746094 105.773438 62.535156 104.992188 63.320312 C 104.84375 63.472656 105.074219 63.707031 105.226562 63.554688 C 106.007812 62.769531 106.789062 61.984375 107.570312 61.195312 C 107.71875 61.046875 107.488281 60.808594 107.335938 60.960938 " fill-opacity="1" fill-rule="nonzero"/><path fill="#ffffff" d="M 107.320312 62.222656 C 106.617188 62.925781 105.917969 63.628906 105.21875 64.335938 C 105.066406 64.484375 105.300781 64.71875 105.449219 64.566406 C 106.152344 63.863281 106.851562 63.160156 107.550781 62.457031 C 107.703125 62.304688 107.46875 62.074219 107.320312 62.222656 " fill-opacity="1" fill-rule="nonzero"/><path fill="#ffffff" d="M 107.027344 63.707031 C 106.679688 64.054688 106.328125 64.410156 105.976562 64.761719 C 105.828125 64.910156 106.0625 65.144531 106.210938 64.992188 C 106.5625 64.644531 106.910156 64.292969 107.261719 63.9375 C 107.410156 63.789062 107.179688 63.554688 107.027344 63.707031 " fill-opacity="1" fill-rule="nonzero"/><path fill="#ffffff" d="M 107.113281 64.980469 C 106.886719 65.207031 106.65625 65.433594 106.429688 65.660156 C 106.277344 65.8125 106.511719 66.046875 106.660156 65.898438 C 106.890625 65.667969 107.117188 65.441406 107.347656 65.214844 C 107.5 65.066406 107.265625 64.828125 107.113281 64.980469 " fill-opacity="1" fill-rule="nonzero"/><path fill="#ffffff" d="M 104.078125 61.929688 C 103.882812 62.132812 103.691406 62.335938 103.496094 62.535156 C 103.347656 62.691406 103.582031 62.925781 103.730469 62.773438 C 103.921875 62.570312 104.117188 62.367188 104.3125 62.164062 C 104.457031 62.011719 104.226562 61.777344 104.078125 61.929688 " fill-opacity="1" fill-rule="nonzero"/><path fill="#ffffff" d="M 112.625 55.042969 C 111.609375 56.0625 110.59375 57.078125 109.582031 58.09375 C 109.429688 58.246094 109.664062 58.480469 109.816406 58.332031 C 110.828125 57.3125 111.84375 56.296875 112.859375 55.277344 C 113.007812 55.125 112.773438 54.894531 112.625 55.042969 " fill-opacity="1" fill-rule="nonzero"/><path fill="#ffffff" d="M 112.550781 56.519531 C 111.851562 57.230469 111.148438 57.941406 110.445312 58.652344 C 110.296875 58.800781 110.53125 59.035156 110.679688 58.886719 C 111.382812 58.175781 112.082031 57.464844 112.785156 56.753906 C 112.933594 56.601562 112.699219 56.367188 112.550781 56.519531 " fill-opacity="1" fill-rule="nonzero"/><path fill="#ffffff" d="M 113.058594 57.367188 C 112.394531 58.035156 111.734375 58.699219 111.070312 59.367188 C 110.917969 59.519531 111.152344 59.75 111.304688 59.601562 C 111.96875 58.933594 112.628906 58.269531 113.292969 57.601562 C 113.441406 57.449219 113.207031 57.21875 113.058594 57.367188 " fill-opacity="1" fill-rule="nonzero"/><path fill="#ffffff" d="M 113.617188 58.128906 C 112.996094 58.753906 112.371094 59.378906 111.746094 60.003906 C 111.597656 60.152344 111.828125 60.386719 111.980469 60.234375 C 112.605469 59.613281 113.226562 58.988281 113.851562 58.363281 C 114 58.214844 113.769531 57.980469 113.617188 58.128906 " fill-opacity="1" fill-rule="nonzero"/><path fill="#ffffff" d="M 114.363281 58.71875 C 113.878906 59.207031 113.394531 59.691406 112.90625 60.179688 C 112.757812 60.332031 112.992188 60.566406 113.140625 60.414062 C 113.625 59.929688 114.109375 59.441406 114.59375 58.953125 C 114.746094 58.804688 114.511719 58.570312 114.363281 58.71875 " fill-opacity="1" fill-rule="nonzero"/><path fill="#ffffff" d="M 115.007812 59.570312 C 114.523438 60.050781 114.042969 60.53125 113.5625 61.015625 C 113.410156 61.167969 113.644531 61.398438 113.792969 61.25 C 114.277344 60.765625 114.757812 60.285156 115.238281 59.804688 C 115.390625 59.652344 115.15625 59.417969 115.007812 59.570312 " fill-opacity="1" fill-rule="nonzero"/><path fill="#ffffff" d="M 115.769531 60.089844 C 115.242188 60.621094 114.710938 61.152344 114.183594 61.683594 C 114.03125 61.835938 114.265625 62.070312 114.414062 61.917969 C 114.945312 61.386719 115.472656 60.855469 116.003906 60.324219 C 116.152344 60.171875 115.921875 59.9375 115.769531 60.089844 " fill-opacity="1" fill-rule="nonzero"/><path fill="#ffffff" d="M 116.175781 60.789062 C 115.734375 61.234375 115.292969 61.683594 114.851562 62.128906 C 114.703125 62.28125 114.933594 62.515625 115.082031 62.363281 C 115.527344 61.917969 115.964844 61.46875 116.40625 61.023438 C 116.558594 60.871094 116.324219 60.636719 116.175781 60.789062 " fill-opacity="1" fill-rule="nonzero"/><path fill="#ffffff" d="M 116.753906 61.390625 C 116.304688 61.832031 115.859375 62.277344 115.414062 62.71875 C 115.261719 62.867188 115.496094 63.101562 115.644531 62.953125 C 116.09375 62.511719 116.539062 62.070312 116.988281 61.625 C 117.136719 61.476562 116.90625 61.242188 116.753906 61.390625 " fill-opacity="1" fill-rule="nonzero"/><path fill="#ffffff" d="M 126.074219 74.820312 C 125.921875 74.972656 125.773438 75.121094 125.621094 75.273438 C 125.472656 75.425781 125.703125 75.660156 125.855469 75.507812 C 126.003906 75.355469 126.15625 75.207031 126.308594 75.054688 C 126.457031 74.902344 126.222656 74.667969 126.074219 74.820312 " fill-opacity="1" fill-rule="nonzero"/><path fill="#ffffff" d="M 126.628906 75.519531 C 126.417969 75.730469 126.207031 75.941406 125.996094 76.15625 C 125.84375 76.304688 126.074219 76.542969 126.226562 76.390625 C 126.4375 76.179688 126.652344 75.964844 126.863281 75.753906 C 127.011719 75.601562 126.78125 75.367188 126.628906 75.519531 " fill-opacity="1" fill-rule="nonzero"/><path fill="#ffffff" d="M 127.214844 76.238281 C 126.867188 76.589844 126.515625 76.941406 126.164062 77.292969 C 126.015625 77.445312 126.25 77.675781 126.398438 77.527344 C 126.75 77.175781 127.097656 76.824219 127.449219 76.472656 C 127.601562 76.320312 127.367188 76.085938 127.214844 76.238281 " fill-opacity="1" fill-rule="nonzero"/><path fill="#ffffff" d="M 127.734375 76.875 C 127.304688 77.308594 126.875 77.742188 126.449219 78.175781 C 126.296875 78.324219 126.53125 78.5625 126.679688 78.410156 C 127.109375 77.976562 127.539062 77.542969 127.96875 77.109375 C 128.117188 76.957031 127.882812 76.722656 127.734375 76.875 " fill-opacity="1" fill-rule="nonzero"/><path fill="#ffffff" d="M 128.199219 77.484375 C 127.652344 78.027344 127.109375 78.566406 126.566406 79.109375 C 126.4375 79.238281 126.613281 79.484375 126.765625 79.371094 C 126.785156 79.359375 126.800781 79.34375 126.816406 79.335938 C 126.984375 79.210938 126.820312 78.921875 126.648438 79.050781 C 126.632812 79.058594 126.617188 79.070312 126.601562 79.085938 C 126.667969 79.171875 126.734375 79.257812 126.800781 79.34375 C 127.34375 78.800781 127.886719 78.261719 128.429688 77.71875 C 128.582031 77.566406 128.347656 77.332031 128.199219 77.484375 " fill-opacity="1" fill-rule="nonzero"/><path fill="#ffffff" d="M 128.734375 78.085938 C 128.332031 78.488281 127.9375 78.890625 127.535156 79.296875 C 127.386719 79.445312 127.621094 79.679688 127.769531 79.527344 C 128.167969 79.125 128.566406 78.722656 128.964844 78.320312 C 129.113281 78.167969 128.882812 77.933594 128.734375 78.085938 " fill-opacity="1" fill-rule="nonzero"/><path fill="#ffffff" d="M 129.3125 78.722656 C 129.085938 78.953125 128.855469 79.183594 128.625 79.414062 C 128.476562 79.5625 128.710938 79.796875 128.859375 79.648438 C 129.089844 79.417969 129.316406 79.1875 129.546875 78.957031 C 129.699219 78.804688 129.464844 78.570312 129.3125 78.722656 " fill-opacity="1" fill-rule="nonzero"/><path fill="#ffffff" d="M 96.832031 68.367188 C 96.667969 68.53125 96.507812 68.695312 96.34375 68.859375 C 96.191406 69.007812 96.425781 69.242188 96.578125 69.09375 C 96.738281 68.929688 96.902344 68.765625 97.066406 68.601562 C 97.214844 68.449219 96.980469 68.214844 96.832031 68.367188 " fill-opacity="1" fill-rule="nonzero"/><path fill="#ffffff" d="M 97.234375 68.972656 C 96.773438 69.433594 96.3125 69.898438 95.851562 70.359375 C 95.703125 70.511719 95.9375 70.746094 96.085938 70.59375 C 96.546875 70.132812 97.007812 69.671875 97.46875 69.207031 C 97.617188 69.058594 97.386719 68.820312 97.234375 68.972656 " fill-opacity="1" fill-rule="nonzero"/><path fill="#ffffff" d="M 98.011719 69.667969 C 97.148438 70.535156 96.285156 71.402344 95.421875 72.269531 C 95.273438 72.417969 95.503906 72.652344 95.65625 72.503906 C 96.519531 71.636719 97.382812 70.769531 98.246094 69.902344 C 98.394531 69.75 98.164062 69.515625 98.011719 69.667969 " fill-opacity="1" fill-rule="nonzero"/><path fill="#ffffff" d="M 98.53125 70.765625 C 97.476562 71.824219 96.417969 72.886719 95.363281 73.945312 C 95.214844 74.09375 95.449219 74.328125 95.597656 74.179688 C 96.652344 73.121094 97.707031 72.058594 98.765625 71 C 98.914062 70.847656 98.679688 70.613281 98.53125 70.765625 " fill-opacity="1" fill-rule="nonzero"/><path fill="#ffffff" d="M 99.300781 71.714844 C 98.191406 72.832031 97.078125 73.953125 95.964844 75.070312 C 95.816406 75.222656 96.050781 75.457031 96.199219 75.304688 C 97.3125 74.183594 98.421875 73.066406 99.535156 71.945312 C 99.683594 71.796875 99.449219 71.5625 99.300781 71.714844 " fill-opacity="1" fill-rule="nonzero"/><path fill="#ffffff" d="M 99.964844 72.875 C 98.902344 73.941406 97.835938 75.011719 96.769531 76.078125 C 96.617188 76.226562 96.851562 76.464844 97.003906 76.3125 C 98.066406 75.242188 99.136719 74.175781 100.199219 73.109375 C 100.351562 72.957031 100.117188 72.722656 99.964844 72.875 " fill-opacity="1" fill-rule="nonzero"/><path fill="#ffffff" d="M 99.574219 75.109375 C 98.871094 75.816406 98.171875 76.523438 97.46875 77.234375 C 97.320312 77.386719 97.550781 77.617188 97.703125 77.46875 C 97.738281 77.429688 97.777344 77.394531 97.8125 77.359375 C 97.964844 77.207031 97.730469 76.972656 97.582031 77.125 C 97.542969 77.160156 97.507812 77.199219 97.46875 77.234375 C 97.546875 77.3125 97.625 77.390625 97.703125 77.46875 C 98.402344 76.757812 99.105469 76.050781 99.804688 75.34375 C 99.957031 75.191406 99.722656 74.957031 99.574219 75.109375 " fill-opacity="1" fill-rule="nonzero"/><path fill="#ffffff" d="M 99.449219 76.980469 C 99.027344 77.402344 98.605469 77.828125 98.183594 78.25 C 98.035156 78.402344 98.269531 78.636719 98.417969 78.484375 C 98.839844 78.0625 99.261719 77.636719 99.683594 77.214844 C 99.835938 77.0625 99.601562 76.828125 99.449219 76.980469 " fill-opacity="1" fill-rule="nonzero"/><path fill="#ffffff" d="M 100.082031 78.046875 C 99.765625 78.375 99.449219 78.703125 99.132812 79.03125 C 98.988281 79.183594 99.21875 79.417969 99.367188 79.265625 C 99.683594 78.9375 100 78.609375 100.316406 78.28125 C 100.464844 78.128906 100.230469 77.894531 100.082031 78.046875 " fill-opacity="1" fill-rule="nonzero"/><path fill="#ffffff" d="M 100.714844 78.6875 C 100.390625 79.011719 100.066406 79.339844 99.738281 79.667969 C 99.589844 79.820312 99.820312 80.050781 99.972656 79.902344 C 100.296875 79.574219 100.625 79.246094 100.949219 78.917969 C 101.101562 78.769531 100.867188 78.535156 100.714844 78.6875 " fill-opacity="1" fill-rule="nonzero"/><path fill="#ffffff" d="M 101.144531 79.980469 C 100.898438 80.222656 100.648438 80.464844 100.398438 80.707031 C 100.246094 80.855469 100.480469 81.089844 100.632812 80.941406 C 100.882812 80.699219 101.128906 80.457031 101.378906 80.214844 C 101.53125 80.066406 101.296875 79.835938 101.144531 79.980469 " fill-opacity="1" fill-rule="nonzero"/><path fill="#ffffff" d="M 64.515625 68.019531 C 64.304688 68.230469 64.09375 68.445312 63.882812 68.65625 C 63.730469 68.804688 63.964844 69.039062 64.113281 68.890625 C 64.328125 68.679688 64.539062 68.464844 64.746094 68.253906 C 64.898438 68.101562 64.667969 67.871094 64.515625 68.019531 " fill-opacity="1" fill-rule="nonzero"/><path fill="#ffffff" d="M 65.148438 68.65625 C 64.851562 68.953125 64.554688 69.253906 64.257812 69.550781 C 64.105469 69.703125 64.339844 69.9375 64.488281 69.785156 C 64.785156 69.488281 65.082031 69.1875 65.382812 68.890625 C 65.53125 68.738281 65.300781 68.503906 65.148438 68.65625 " fill-opacity="1" fill-rule="nonzero"/><path fill="#ffffff" d="M 65.835938 69.550781 C 65.03125 70.320312 64.246094 71.113281 63.476562 71.921875 C 63.332031 72.074219 63.566406 72.308594 63.710938 72.152344 C 64.480469 71.34375 65.265625 70.554688 66.070312 69.785156 C 66.226562 69.636719 65.992188 69.402344 65.835938 69.550781 " fill-opacity="1" fill-rule="nonzero"/><path fill="#ffffff" d="M 66.414062 70.648438 C 65.195312 71.863281 63.980469 73.078125 62.761719 74.292969 C 62.609375 74.445312 62.84375 74.679688 62.996094 74.527344 C 64.210938 73.3125 65.429688 72.097656 66.648438 70.882812 C 66.796875 70.734375 66.566406 70.5 66.414062 70.648438 " fill-opacity="1" fill-rule="nonzero"/><path fill="#ffffff" d="M 66.613281 72.179688 C 65.140625 73.65625 63.664062 75.132812 62.191406 76.609375 C 62.042969 76.761719 62.273438 76.996094 62.421875 76.84375 C 63.898438 75.367188 65.371094 73.890625 66.84375 72.414062 C 66.996094 72.261719 66.765625 72.027344 66.613281 72.179688 " fill-opacity="1" fill-rule="nonzero"/><path fill="#ffffff" d="M 65.496094 75.128906 C 64.765625 75.863281 64.035156 76.59375 63.308594 77.328125 C 63.15625 77.476562 63.390625 77.710938 63.539062 77.5625 C 64.269531 76.828125 65 76.097656 65.726562 75.363281 C 65.875 75.214844 65.644531 74.980469 65.496094 75.128906 " fill-opacity="1" fill-rule="nonzero"/><path fill="#ffffff" d="M 65.40625 76.75 C 65.035156 77.125 64.660156 77.5 64.285156 77.875 C 64.136719 78.027344 64.367188 78.261719 64.519531 78.109375 C 64.894531 77.734375 65.269531 77.359375 65.640625 76.984375 C 65.792969 76.832031 65.558594 76.597656 65.40625 76.75 " fill-opacity="1" fill-rule="nonzero"/><path fill="#ffffff" d="M 66.242188 77.90625 C 66.078125 78.070312 65.914062 78.234375 65.753906 78.398438 C 65.605469 78.546875 65.835938 78.78125 65.984375 78.628906 C 66.148438 78.464844 66.3125 78.300781 66.472656 78.140625 C 66.625 77.988281 66.394531 77.753906 66.242188 77.90625 " fill-opacity="1" fill-rule="nonzero"/><path fill="#ffffff" d="M 66.816406 78.511719 C 66.65625 78.675781 66.492188 78.839844 66.328125 79.003906 C 66.175781 79.152344 66.410156 79.386719 66.5625 79.238281 C 66.726562 79.074219 66.886719 78.910156 67.050781 78.746094 C 67.199219 78.59375 66.96875 78.359375 66.816406 78.511719 " fill-opacity="1" fill-rule="nonzero"/><path fill="#ffffff" d="M 50.285156 68.191406 C 50.210938 68.265625 50.140625 68.339844 50.066406 68.414062 C 49.917969 68.566406 50.148438 68.800781 50.300781 68.648438 C 50.371094 68.574219 50.445312 68.5 50.515625 68.425781 C 50.667969 68.273438 50.433594 68.039062 50.285156 68.191406 " fill-opacity="1" fill-rule="nonzero"/><path fill="#ffffff" d="M 51.195312 68.636719 C 51.066406 68.800781 50.917969 68.949219 50.753906 69.078125 C 50.597656 69.222656 50.832031 69.457031 50.988281 69.3125 C 51.152344 69.183594 51.296875 69.035156 51.429688 68.871094 C 51.566406 68.710938 51.335938 68.476562 51.195312 68.636719 " fill-opacity="1" fill-rule="nonzero"/><path fill="#ffffff" d="M 52.292969 68.941406 C 51.953125 69.28125 51.617188 69.621094 51.277344 69.960938 C 51.128906 70.109375 51.359375 70.34375 51.507812 70.195312 C 51.847656 69.855469 52.1875 69.515625 52.523438 69.175781 C 52.675781 69.023438 52.441406 68.789062 52.292969 68.941406 " fill-opacity="1" fill-rule="nonzero"/><path fill="#ffffff" d="M 53.253906 69.1875 C 52.613281 69.832031 51.972656 70.472656 51.332031 71.117188 C 51.179688 71.269531 51.414062 71.503906 51.566406 71.351562 C 52.207031 70.710938 52.847656 70.066406 53.488281 69.421875 C 53.636719 69.269531 53.402344 69.035156 53.253906 69.1875 " fill-opacity="1" fill-rule="nonzero"/><path fill="#ffffff" d="M 54.214844 69.960938 C 53.675781 70.503906 53.132812 71.042969 52.59375 71.585938 C 52.441406 71.738281 52.675781 71.972656 52.828125 71.820312 C 53.367188 71.28125 53.90625 70.738281 54.445312 70.195312 C 54.597656 70.042969 54.363281 69.808594 54.214844 69.960938 " fill-opacity="1" fill-rule="nonzero"/><path fill="#ffffff" d="M 54.984375 70.59375 C 54.488281 71.089844 53.992188 71.585938 53.5 72.082031 C 53.347656 72.234375 53.582031 72.46875 53.734375 72.316406 C 54.226562 71.820312 54.722656 71.324219 55.21875 70.828125 C 55.367188 70.675781 55.132812 70.441406 54.984375 70.59375 " fill-opacity="1" fill-rule="nonzero"/><path fill="#ffffff" d="M 55.476562 71.449219 C 55.210938 71.714844 54.945312 71.984375 54.679688 72.25 C 54.53125 72.398438 54.765625 72.632812 54.914062 72.480469 C 55.179688 72.214844 55.445312 71.949219 55.710938 71.683594 C 55.859375 71.53125 55.628906 71.296875 55.476562 71.449219 " fill-opacity="1" fill-rule="nonzero"/><path fill="#ffffff" d="M 55.757812 72.136719 C 55.816406 72.40625 55.886719 72.644531 55.984375 72.90625 C 56.058594 73.101562 56.378906 73.015625 56.300781 72.816406 C 56.203125 72.558594 56.132812 72.316406 56.078125 72.046875 C 56.035156 71.839844 55.714844 71.925781 55.757812 72.136719 " fill-opacity="1" fill-rule="nonzero"/><path fill="#ffffff" d="M 73.792969 41.996094 C 73.902344 36.941406 73.878906 31.878906 73.757812 26.828125 C 73.753906 26.625 73.453125 26.625 73.449219 26.828125 C 73.332031 31.890625 73.304688 36.964844 73.417969 42.03125 C 73.542969 42.011719 73.671875 42.003906 73.792969 41.996094 " fill-opacity="1" fill-rule="nonzero"/><path fill="#ffffff" d="M 73.316406 20.03125 C 73.332031 21.496094 73.230469 23.039062 73.546875 24.476562 C 73.558594 24.53125 73.648438 24.53125 73.664062 24.476562 C 73.980469 23.042969 73.878906 21.492188 73.890625 20.03125 C 73.90625 18.371094 73.984375 16.699219 73.824219 15.046875 C 73.800781 14.761719 73.410156 14.757812 73.382812 15.046875 C 73.222656 16.699219 73.304688 18.371094 73.316406 20.03125 " fill-opacity="1" fill-rule="nonzero"/><g clip-path="url(#id7)"><path fill="#ffffff" d="M 73.710938 13.296875 C 73.925781 9.4375 73.90625 5.59375 73.820312 1.730469 C 73.8125 1.453125 73.394531 1.453125 73.390625 1.730469 C 73.300781 5.59375 73.285156 9.4375 73.496094 13.296875 C 73.503906 13.433594 73.707031 13.4375 73.710938 13.296875 " fill-opacity="1" fill-rule="nonzero"/></g><path fill="#ffffff" d="M 75.6875 42.292969 C 76.382812 40.464844 77.007812 38.601562 77.5625 36.730469 C 77.621094 36.535156 77.339844 36.46875 77.265625 36.648438 C 76.527344 38.449219 75.847656 40.292969 75.246094 42.152344 C 75.394531 42.191406 75.542969 42.242188 75.6875 42.292969 " fill-opacity="1" fill-rule="nonzero"/><path fill="#ffffff" d="M 85.152344 14.007812 C 83.988281 16.882812 83.019531 19.839844 82 22.769531 C 81.191406 25.105469 80.226562 27.476562 79.558594 29.882812 C 78.933594 31.628906 78.355469 33.390625 77.8125 35.167969 C 77.765625 35.328125 78 35.382812 78.0625 35.234375 C 78.75 33.511719 79.402344 31.777344 80.003906 30.027344 C 80.953125 27.808594 81.660156 25.441406 82.464844 23.191406 C 83.539062 20.179688 84.667969 17.1875 85.582031 14.125 C 85.667969 13.84375 85.261719 13.75 85.152344 14.007812 " fill-opacity="1" fill-rule="nonzero"/><path fill="#ffffff" d="M 88.5625 4.335938 C 87.605469 6.796875 86.722656 9.25 86.050781 11.804688 C 86.019531 11.917969 86.195312 12.003906 86.246094 11.890625 C 87.324219 9.464844 88.179688 6.980469 88.976562 4.449219 C 89.0625 4.179688 88.664062 4.082031 88.5625 4.335938 " fill-opacity="1" fill-rule="nonzero"/><path fill="#ffffff" d="M 77.371094 43.195312 C 79.300781 40.898438 81.175781 38.550781 82.992188 36.167969 C 84.257812 34.679688 85.488281 33.164062 86.671875 31.605469 C 86.808594 31.425781 86.5 31.1875 86.351562 31.359375 C 85.09375 32.84375 83.882812 34.363281 82.710938 35.914062 C 80.761719 38.222656 78.855469 40.566406 77.019531 42.964844 C 77.140625 43.039062 77.257812 43.113281 77.371094 43.195312 " fill-opacity="1" fill-rule="nonzero"/><path fill="#ffffff" d="M 88.019531 29.707031 C 89.210938 28.777344 90.128906 27.425781 91.082031 26.261719 C 91.964844 25.183594 92.886719 24.132812 93.644531 22.960938 C 93.78125 22.746094 93.472656 22.511719 93.296875 22.691406 C 92.214844 23.785156 91.300781 25.042969 90.351562 26.253906 C 89.507812 27.320312 88.511719 28.398438 87.925781 29.632812 C 87.890625 29.695312 87.964844 29.75 88.019531 29.707031 " fill-opacity="1" fill-rule="nonzero"/><path fill="#ffffff" d="M 94.625 21.5625 C 97.335938 18.523438 99.859375 15.355469 102.339844 12.128906 C 102.507812 11.914062 102.21875 11.605469 102.035156 11.820312 C 99.410156 14.953125 96.847656 18.113281 94.453125 21.429688 C 94.382812 21.527344 94.542969 21.652344 94.625 21.5625 " fill-opacity="1" fill-rule="nonzero"/><path fill="#ffffff" d="M 79.035156 44.453125 C 83.125 42.027344 87.15625 39.507812 91.132812 36.914062 C 91.296875 36.804688 91.148438 36.542969 90.976562 36.644531 C 86.839844 39.070312 82.738281 41.585938 78.707031 44.1875 C 78.816406 44.277344 78.925781 44.363281 79.035156 44.453125 " fill-opacity="1" fill-rule="nonzero"/><path fill="#ffffff" d="M 93.019531 35.496094 C 92.960938 35.539062 93.03125 35.617188 93.089844 35.589844 C 96.488281 34.027344 99.65625 31.78125 102.839844 29.828125 C 106.058594 27.851562 109.304688 25.921875 112.4375 23.804688 C 112.675781 23.648438 112.464844 23.277344 112.214844 23.421875 C 108.847656 25.324219 105.589844 27.425781 102.308594 29.472656 C 99.207031 31.40625 95.871094 33.203125 93.019531 35.496094 " fill-opacity="1" fill-rule="nonzero"/><path fill="#ffffff" d="M 101.773438 41.800781 C 103.890625 41.351562 106.027344 40.96875 108.101562 40.359375 C 108.125 40.351562 108.144531 40.339844 108.164062 40.324219 C 108.296875 40.296875 108.429688 40.269531 108.5625 40.238281 C 108.816406 40.179688 108.707031 39.792969 108.457031 39.847656 C 108.324219 39.875 108.1875 39.90625 108.054688 39.933594 C 108.03125 39.929688 108.007812 39.925781 107.984375 39.929688 C 105.933594 40.222656 103.917969 40.730469 101.898438 41.179688 C 100.359375 41.523438 98.738281 41.792969 97.207031 42.253906 C 92.304688 43.328125 87.410156 44.425781 82.519531 45.550781 C 82.355469 45.585938 82.425781 45.832031 82.585938 45.796875 C 87.496094 44.796875 92.402344 43.765625 97.304688 42.710938 C 98.804688 42.507812 100.308594 42.105469 101.773438 41.800781 " fill-opacity="1" fill-rule="nonzero"/><path fill="#ffffff" d="M 110.347656 39.75 C 112.96875 39.402344 115.519531 38.832031 118.082031 38.1875 C 118.355469 38.117188 118.238281 37.722656 117.96875 37.769531 C 115.382812 38.242188 112.835938 38.773438 110.316406 39.539062 C 110.207031 39.574219 110.21875 39.769531 110.347656 39.75 " fill-opacity="1" fill-rule="nonzero"/><path fill="#ffffff" d="M 97.03125 50.480469 C 97.160156 50.632812 97.289062 50.78125 97.414062 50.933594 C 98.746094 51.222656 100.136719 51.355469 101.484375 51.523438 C 101.769531 51.351562 102.0625 51.195312 102.363281 51.050781 C 100.613281 50.828125 98.804688 50.5 97.03125 50.480469 " fill-opacity="1" fill-rule="nonzero"/><path fill="#ffffff" d="M 64.21875 36.167969 C 66.117188 38.652344 68.070312 41.101562 70.089844 43.488281 C 70.199219 43.414062 70.308594 43.34375 70.417969 43.269531 C 68.511719 40.769531 66.53125 38.316406 64.5 35.914062 C 63.324219 34.363281 62.117188 32.84375 60.855469 31.359375 C 60.710938 31.191406 60.398438 31.421875 60.539062 31.605469 C 61.722656 33.164062 62.949219 34.679688 64.21875 36.167969 " fill-opacity="1" fill-rule="nonzero"/><path fill="#ffffff" d="M 56.128906 26.261719 C 57.082031 27.429688 57.996094 28.777344 59.191406 29.707031 C 59.242188 29.75 59.316406 29.699219 59.285156 29.632812 C 58.703125 28.402344 57.699219 27.316406 56.859375 26.253906 C 55.90625 25.042969 54.996094 23.785156 53.914062 22.691406 C 53.738281 22.515625 53.425781 22.742188 53.566406 22.960938 C 54.320312 24.128906 55.246094 25.183594 56.128906 26.261719 " fill-opacity="1" fill-rule="nonzero"/><path fill="#ffffff" d="M 44.867188 12.128906 C 47.351562 15.355469 49.875 18.523438 52.585938 21.5625 C 52.667969 21.648438 52.828125 21.53125 52.753906 21.429688 C 50.363281 18.113281 47.796875 14.953125 45.171875 11.820312 C 44.992188 11.605469 44.703125 11.914062 44.867188 12.128906 " fill-opacity="1" fill-rule="nonzero"/><path fill="#ffffff" d="M 56.078125 36.914062 C 60.179688 39.585938 64.339844 42.183594 68.554688 44.675781 C 68.65625 44.59375 68.757812 44.507812 68.863281 44.421875 C 64.710938 41.734375 60.496094 39.144531 56.234375 36.644531 C 56.0625 36.542969 55.910156 36.804688 56.078125 36.914062 " fill-opacity="1" fill-rule="nonzero"/><path fill="#ffffff" d="M 34.773438 23.804688 C 37.902344 25.921875 41.152344 27.851562 44.371094 29.828125 C 47.554688 31.78125 50.722656 34.027344 54.117188 35.589844 C 54.175781 35.617188 54.25 35.542969 54.191406 35.496094 C 51.339844 33.203125 48 31.40625 44.902344 29.472656 C 41.621094 27.425781 38.363281 25.324219 34.996094 23.421875 C 34.742188 23.277344 34.535156 23.648438 34.773438 23.804688 " fill-opacity="1" fill-rule="nonzero"/><path fill="#ffffff" d="M 49.90625 42.710938 C 51.289062 43.007812 52.671875 43.300781 54.054688 43.59375 C 54.195312 43.476562 54.335938 43.363281 54.480469 43.246094 C 52.988281 42.917969 51.496094 42.582031 50.003906 42.253906 C 48.46875 41.792969 46.851562 41.523438 45.3125 41.179688 C 43.292969 40.730469 41.277344 40.222656 39.226562 39.929688 C 39.199219 39.925781 39.175781 39.929688 39.15625 39.933594 C 39.019531 39.90625 38.886719 39.875 38.753906 39.847656 C 38.5 39.792969 38.390625 40.179688 38.644531 40.238281 C 38.777344 40.269531 38.910156 40.296875 39.042969 40.324219 C 39.0625 40.339844 39.082031 40.351562 39.109375 40.359375 C 41.183594 40.96875 43.320312 41.355469 45.433594 41.800781 C 46.902344 42.105469 48.402344 42.507812 49.90625 42.710938 " fill-opacity="1" fill-rule="nonzero"/><path fill="#ffffff" d="M 29.125 38.1875 C 31.691406 38.832031 34.242188 39.402344 36.863281 39.75 C 36.988281 39.769531 37.003906 39.574219 36.890625 39.539062 C 34.375 38.773438 31.828125 38.242188 29.242188 37.769531 C 28.972656 37.722656 28.851562 38.117188 29.125 38.1875 " fill-opacity="1" fill-rule="nonzero"/><path fill="#ffffff" d="M 70.664062 47.914062 C 70.136719 47.957031 69.609375 48.011719 69.085938 48.0625 C 68.941406 48.203125 68.800781 48.34375 68.667969 48.492188 C 69.34375 48.382812 70.019531 48.28125 70.695312 48.164062 C 70.835938 48.140625 70.804688 47.898438 70.664062 47.914062 " fill-opacity="1" fill-rule="nonzero"/><path fill="#ffffff" d="M 51.019531 50.496094 C 50.730469 50.480469 50.4375 50.476562 50.144531 50.480469 C 50.105469 50.515625 50.0625 50.546875 50.023438 50.578125 C 49.84375 50.71875 49.664062 50.859375 49.484375 51 C 50.011719 50.894531 50.53125 50.773438 51.035156 50.613281 C 51.101562 50.59375 51.089844 50.496094 51.019531 50.496094 " fill-opacity="1" fill-rule="nonzero"/><path fill="#ffffff" d="M 44.882812 51.046875 C 44.785156 51.058594 44.683594 51.074219 44.582031 51.085938 C 42.636719 51.324219 40.679688 51.511719 38.757812 51.894531 C 35.332031 52.253906 31.925781 52.71875 28.515625 53.222656 C 28.277344 53.253906 28.328125 53.671875 28.574219 53.644531 C 31.996094 53.273438 35.410156 52.863281 38.8125 52.347656 C 40.570312 52.246094 42.316406 51.992188 44.066406 51.746094 C 44.335938 51.511719 44.609375 51.277344 44.882812 51.046875 " fill-opacity="1" fill-rule="nonzero"/><path fill="#ffffff" d="M 71.625 42.59375 C 71.765625 42.523438 71.914062 42.460938 72.058594 42.402344 C 71.605469 40.988281 71.074219 39.589844 70.496094 38.226562 C 70.429688 38.0625 70.167969 38.179688 70.214844 38.347656 C 70.621094 39.777344 71.089844 41.199219 71.625 42.59375 " fill-opacity="1" fill-rule="nonzero"/><path fill="#ffffff" d="M 61.628906 14.125 C 62.886719 18.167969 64.359375 22.140625 65.777344 26.128906 C 67.121094 29.914062 68.261719 33.921875 70.03125 37.53125 C 70.0625 37.597656 70.152344 37.550781 70.140625 37.484375 C 69.242188 33.484375 67.585938 29.574219 66.242188 25.707031 C 64.878906 21.796875 63.566406 17.863281 62.054688 14.007812 C 61.953125 13.746094 61.539062 13.84375 61.628906 14.125 " fill-opacity="1" fill-rule="nonzero"/><path fill="#ffffff" d="M 61.160156 11.804688 C 60.488281 9.25 59.601562 6.796875 58.644531 4.335938 C 58.546875 4.082031 58.144531 4.179688 58.230469 4.449219 C 59.03125 6.980469 59.882812 9.464844 60.960938 11.890625 C 61.011719 12.003906 61.1875 11.921875 61.160156 11.804688 " fill-opacity="1" fill-rule="nonzero"/><path fill="#ffffff" d="M 67.988281 15.503906 C 68.097656 17 68.40625 18.472656 68.667969 19.949219 C 68.953125 21.550781 69.109375 23.289062 69.722656 24.800781 C 69.746094 24.859375 69.835938 24.855469 69.839844 24.78125 C 69.914062 23.316406 69.550781 21.785156 69.320312 20.339844 C 69.054688 18.703125 68.855469 17.042969 68.421875 15.441406 C 68.359375 15.207031 67.96875 15.246094 67.988281 15.503906 " fill-opacity="1" fill-rule="nonzero"/><path fill="#ffffff" d="M 66.324219 5.632812 C 66.703125 8.390625 67.140625 11.109375 67.816406 13.808594 C 67.84375 13.921875 68.039062 13.902344 68.027344 13.777344 C 67.773438 10.992188 67.289062 8.261719 66.738281 5.519531 C 66.683594 5.242188 66.285156 5.367188 66.324219 5.632812 " fill-opacity="1" fill-rule="nonzero"/><path fill="#ffffff" d="M 76.476562 29.609375 C 76.183594 31.28125 75.929688 32.957031 75.714844 34.644531 C 75.699219 34.785156 75.933594 34.816406 75.964844 34.679688 C 76.324219 33.023438 76.644531 31.359375 76.929688 29.695312 C 77.3125 28.234375 77.496094 26.683594 77.757812 25.226562 C 78.074219 23.464844 78.4375 21.710938 78.597656 19.929688 C 78.621094 19.675781 78.222656 19.632812 78.160156 19.871094 C 77.679688 21.757812 77.421875 23.699219 77.105469 25.617188 C 76.894531 26.917969 76.59375 28.269531 76.476562 29.609375 " fill-opacity="1" fill-rule="nonzero"/><path fill="#ffffff" d="M 79.308594 13.238281 C 78.929688 14.933594 78.625 16.59375 78.542969 18.328125 C 78.539062 18.453125 78.722656 18.472656 78.753906 18.359375 C 79.261719 16.695312 79.523438 15.019531 79.734375 13.296875 C 79.761719 13.054688 79.363281 13.003906 79.308594 13.238281 " fill-opacity="1" fill-rule="nonzero"/><path fill="#ffffff" d="M 83.492188 29.460938 C 82.199219 31.628906 81 33.847656 79.867188 36.105469 C 79.792969 36.25 80 36.375 80.085938 36.234375 C 81.410156 34.085938 82.667969 31.902344 83.835938 29.664062 C 83.957031 29.433594 83.625 29.234375 83.492188 29.460938 " fill-opacity="1" fill-rule="nonzero"/><path fill="#ffffff" d="M 88.886719 19.742188 C 88 21.007812 87.308594 22.414062 86.566406 23.769531 C 85.914062 24.960938 85.140625 26.167969 84.757812 27.480469 C 84.742188 27.535156 84.816406 27.582031 84.859375 27.539062 C 85.773438 26.527344 86.390625 25.238281 87.0625 24.058594 C 87.828125 22.714844 88.65625 21.390625 89.269531 19.964844 C 89.382812 19.707031 89.054688 19.503906 88.886719 19.742188 " fill-opacity="1" fill-rule="nonzero"/><path fill="#ffffff" d="M 103.027344 21.953125 C 103.238281 21.746094 102.929688 21.460938 102.714844 21.636719 C 100.214844 23.640625 97.851562 25.816406 95.457031 27.945312 C 93.089844 30.050781 90.484375 32.070312 88.410156 34.464844 C 88.367188 34.515625 88.421875 34.601562 88.484375 34.5625 C 91.054688 32.847656 93.328125 30.574219 95.652344 28.542969 C 98.132812 26.375 100.660156 24.246094 103.027344 21.953125 " fill-opacity="1" fill-rule="nonzero"/><path fill="#ffffff" d="M 86.539062 42.558594 C 93.339844 39.941406 100.109375 37.253906 106.84375 34.46875 C 107.078125 34.371094 106.980469 33.984375 106.738281 34.078125 C 99.945312 36.738281 93.195312 39.492188 86.472656 42.3125 C 86.324219 42.375 86.386719 42.621094 86.539062 42.558594 " fill-opacity="1" fill-rule="nonzero"/><path fill="#ffffff" d="M 111.398438 32.1875 C 110.355469 32.511719 109.394531 32.871094 108.480469 33.480469 C 108.375 33.546875 108.445312 33.699219 108.5625 33.675781 C 109.644531 33.480469 110.585938 33.074219 111.5625 32.585938 C 111.78125 32.472656 111.632812 32.117188 111.398438 32.1875 " fill-opacity="1" fill-rule="nonzero"/><path fill="#ffffff" d="M 96.382812 46.769531 C 98.324219 47.03125 100.367188 46.820312 102.320312 46.753906 C 104.480469 46.675781 106.652344 46.660156 108.800781 46.414062 C 109.082031 46.382812 109.09375 45.980469 108.800781 45.96875 C 106.644531 45.90625 104.476562 46.070312 102.320312 46.175781 C 100.359375 46.269531 98.300781 46.222656 96.382812 46.652344 C 96.328125 46.664062 96.324219 46.761719 96.382812 46.769531 " fill-opacity="1" fill-rule="nonzero"/><path fill="#ffffff" d="M 96.585938 54.554688 C 96.179688 54.464844 95.769531 54.394531 95.355469 54.363281 C 95.296875 54.359375 95.277344 54.449219 95.328125 54.476562 C 95.894531 54.800781 96.511719 55.050781 97.144531 55.269531 C 96.960938 55.027344 96.773438 54.792969 96.585938 54.554688 " fill-opacity="1" fill-rule="nonzero"/><path fill="#ffffff" d="M 44.183594 21.953125 C 46.550781 24.246094 49.074219 26.375 51.554688 28.542969 C 53.882812 30.574219 56.15625 32.847656 58.726562 34.5625 C 58.785156 34.601562 58.84375 34.515625 58.800781 34.464844 C 56.722656 32.070312 54.117188 30.050781 51.753906 27.945312 C 49.359375 25.816406 46.996094 23.640625 44.496094 21.636719 C 44.277344 21.460938 43.96875 21.746094 44.183594 21.953125 " fill-opacity="1" fill-rule="nonzero"/><path fill="#ffffff" d="M 40.363281 34.46875 C 46.144531 36.859375 51.953125 39.171875 57.78125 41.4375 C 57.957031 41.390625 58.140625 41.34375 58.320312 41.304688 C 52.398438 38.835938 46.449219 36.417969 40.472656 34.078125 C 40.230469 33.984375 40.128906 34.371094 40.363281 34.46875 " fill-opacity="1" fill-rule="nonzero"/><path fill="#ffffff" d="M 38.730469 33.480469 C 37.8125 32.871094 36.851562 32.511719 35.8125 32.1875 C 35.582031 32.117188 35.421875 32.472656 35.644531 32.585938 C 36.621094 33.074219 37.566406 33.480469 38.644531 33.675781 C 38.765625 33.699219 38.832031 33.550781 38.730469 33.480469 " fill-opacity="1" fill-rule="nonzero"/><path fill="#ffffff" d="M 50.15625 46.839844 C 50.265625 46.753906 50.371094 46.667969 50.476562 46.585938 C 48.660156 46.234375 46.730469 46.265625 44.890625 46.175781 C 42.734375 46.070312 40.566406 45.90625 38.40625 45.96875 C 38.113281 45.980469 38.128906 46.382812 38.40625 46.414062 C 40.554688 46.660156 42.730469 46.675781 44.890625 46.753906 C 46.625 46.8125 48.417969 46.984375 50.15625 46.839844 " fill-opacity="1" fill-rule="nonzero"/><path fill="#ffffff" d="M 60.910156 24.445312 C 60.503906 23.085938 59.707031 21.832031 59.035156 20.589844 C 58.269531 19.179688 57.554688 17.726562 56.640625 16.402344 C 56.476562 16.164062 56.144531 16.367188 56.257812 16.628906 C 56.894531 18.105469 57.75 19.484375 58.539062 20.882812 C 59.234375 22.109375 59.871094 23.441406 60.804688 24.503906 C 60.847656 24.546875 60.925781 24.5 60.910156 24.445312 " fill-opacity="1" fill-rule="nonzero"/><path fill="#ffffff" d="M 65.855469 33.617188 C 65.898438 33.660156 65.972656 33.613281 65.957031 33.554688 C 65.644531 32.390625 64.96875 31.332031 64.402344 30.277344 C 63.75 29.074219 63.148438 27.824219 62.351562 26.710938 C 62.21875 26.527344 61.84375 26.632812 61.945312 26.882812 C 62.445312 28.09375 63.136719 29.210938 63.78125 30.34375 C 64.410156 31.453125 64.980469 32.675781 65.855469 33.617188 " fill-opacity="1" fill-rule="nonzero"/></svg>