<svg xmlns="http://www.w3.org/2000/svg" xmlns:xlink="http://www.w3.org/1999/xlink" width="100" zoomAndPan="magnify" viewBox="0 0 75 30.000001" height="40" preserveAspectRatio="xMidYMid meet" version="1.0"><defs><clipPath id="id1"><path d="M 2.660156 19 L 29 19 L 29 29 L 2.660156 29 Z M 2.660156 19 " clip-rule="nonzero"/></clipPath><clipPath id="id2"><path d="M 14 20 L 41 20 L 41 29.03125 L 14 29.03125 Z M 14 20 " clip-rule="nonzero"/></clipPath></defs><path fill="#2e2a2b" d="M 52.460938 3.984375 C 51.902344 4.179688 51.375 4.125 51.289062 3.871094 C 51.199219 3.613281 51.582031 3.25 52.140625 3.054688 C 52.699219 2.863281 53.222656 2.914062 53.3125 3.171875 C 53.398438 3.425781 53.019531 3.792969 52.460938 3.984375 Z M 47.324219 4.550781 C 46.585938 4.804688 45.890625 4.738281 45.773438 4.398438 C 45.65625 4.058594 46.160156 3.578125 46.898438 3.320312 C 47.636719 3.066406 48.332031 3.132812 48.449219 3.472656 C 48.566406 3.8125 48.0625 4.296875 47.324219 4.550781 Z M 42.933594 7.273438 C 42.375 7.464844 41.847656 7.414062 41.761719 7.160156 C 41.671875 6.902344 42.054688 6.539062 42.613281 6.34375 C 43.171875 6.152344 43.695312 6.203125 43.785156 6.460938 C 43.871094 6.71875 43.492188 7.082031 42.933594 7.273438 Z M 46.480469 2.113281 C 42.457031 3.503906 39.679688 6.542969 39.320312 9.566406 C 41.910156 8.414062 44.808594 7.273438 47.894531 6.207031 C 50.984375 5.140625 53.96875 4.253906 56.714844 3.558594 C 54.570312 1.402344 50.507812 0.722656 46.480469 2.113281 " fill-opacity="1" fill-rule="nonzero"/><g clip-path="url(#id1)"><path fill="#2e2a2b" d="M 27.378906 19.75 L 2.675781 28.875 L 28.839844 20.46875 C 28.226562 20.269531 27.738281 20.03125 27.378906 19.75 " fill-opacity="1" fill-rule="nonzero"/></g><g clip-path="url(#id2)"><path fill="#2e2a2b" d="M 14.535156 29.03125 L 40.679688 20.847656 C 38.820312 21.0625 36.988281 21.175781 35.277344 21.183594 L 14.535156 29.03125 " fill-opacity="1" fill-rule="nonzero"/></g><path fill="#2e2a2b" d="M 28.609375 15.125 L 11.914062 21.441406 L 27.15625 16.671875 C 27.492188 16.183594 27.976562 15.667969 28.609375 15.125 " fill-opacity="1" fill-rule="nonzero"/><path fill="#2e2a2b" d="M 48.539062 8.070312 C 38.820312 11.429688 31.050781 15.503906 29.070312 18.097656 C 29.613281 15.628906 37.765625 11.046875 48.308594 7.40625 C 58.855469 3.765625 68.097656 2.339844 70.046875 3.949219 C 66.890625 3.132812 58.257812 4.714844 48.539062 8.070312 Z M 71.597656 3.320312 C 70.757812 0.890625 60.195312 2.328125 48.007812 6.535156 C 35.820312 10.742188 26.621094 16.128906 27.460938 18.558594 C 28.1875 20.65625 37.792969 21.132812 47.289062 18.855469 C 45.457031 18.964844 44.050781 18.738281 43.894531 18.289062 C 43.617188 17.484375 46.660156 15.703125 50.691406 14.308594 C 54.726562 12.917969 58.21875 12.441406 58.496094 13.246094 C 58.652344 13.699219 57.683594 14.742188 56.179688 15.789062 C 65.054688 11.71875 72.320312 5.417969 71.597656 3.320312 " fill-opacity="1" fill-rule="nonzero"/><path fill="#2e2a2b" d="M 56.324219 15.148438 C 56.140625 14.621094 53.859375 14.929688 51.222656 15.839844 C 48.585938 16.75 46.597656 17.917969 46.777344 18.441406 C 46.835938 18.605469 47.136719 18.722656 47.59375 18.78125 C 49.015625 18.433594 50.429688 18.023438 51.808594 17.546875 C 53.191406 17.070312 54.558594 16.519531 55.890625 15.917969 C 56.214844 15.585938 56.378906 15.308594 56.324219 15.148438 " fill-opacity="1" fill-rule="nonzero"/></svg>